<?xml version="1.0" encoding="UTF-8" standalone="no"?>
<svg
   xmlns:dc="http://purl.org/dc/elements/1.1/"
   xmlns:cc="http://creativecommons.org/ns#"
   xmlns:rdf="http://www.w3.org/1999/02/22-rdf-syntax-ns#"
   xmlns:svg="http://www.w3.org/2000/svg"
   xmlns="http://www.w3.org/2000/svg"
   xmlns:sodipodi="http://sodipodi.sourceforge.net/DTD/sodipodi-0.dtd"
   xmlns:inkscape="http://www.inkscape.org/namespaces/inkscape"
   version="1.1"
   x="0px"
   y="0px"
   viewBox="0 0 500 500"
   style="enable-background:new 0 0 500 500;"
   xml:space="preserve"
   id="svg197"
   sodipodi:docname="desktop.svg"
   inkscape:version="1.0.2-2 (e86c870879, 2021-01-15)"><metadata
   id="metadata203"><rdf:RDF><cc:Work
       rdf:about=""><dc:format>image/svg+xml</dc:format><dc:type
         rdf:resource="http://purl.org/dc/dcmitype/StillImage" /></cc:Work></rdf:RDF></metadata><defs
   id="defs201" /><sodipodi:namedview
   pagecolor="#ffffff"
   bordercolor="#666666"
   borderopacity="1"
   objecttolerance="10"
   gridtolerance="10"
   guidetolerance="10"
   inkscape:pageopacity="0"
   inkscape:pageshadow="2"
   inkscape:window-width="1366"
   inkscape:window-height="705"
   id="namedview199"
   showgrid="false"
   inkscape:zoom="1.076"
   inkscape:cx="250"
   inkscape:cy="250"
   inkscape:window-x="-8"
   inkscape:window-y="-8"
   inkscape:window-maximized="1"
   inkscape:current-layer="BACKGROUND"
   inkscape:document-rotation="0" />
<style
   type="text/css"
   id="style2">
	.st0{fill:#DAE1E7;}
	.st1{fill:#344B7E;}
	.st2{fill:#FFFFFF;}
	.st3{fill:none;stroke:#1C1E1D;stroke-width:2.4384;stroke-linecap:round;stroke-linejoin:round;stroke-miterlimit:10;}
	.st4{fill:#183661;}
	.st5{fill:#22334C;}
	.st6{fill:#84AAD7;}
	.st7{fill:#FDFDFB;}
	.st8{fill:none;stroke:#E8EBED;stroke-width:2;stroke-miterlimit:10;}
	.st9{fill:#1C1E1D;}
	.st10{fill:none;stroke:#1C1E1D;stroke-width:2.9553;stroke-miterlimit:10;}
	.st11{fill:#98AAE0;}
	.st12{fill:#C7DBF5;}
	.st13{fill:#DAE6F5;}
	.st14{fill:#91B1FA;}
	.st15{fill:#597ACC;}
	.st16{fill:#222221;}
</style>
<g
   id="BACKGROUND">
	<rect
   x="0.23999999"
   y="0.51999998"
   class="st0"
   width="500"
   height="499.48001"
   id="rect4"
   style="fill:#eeeef5;fill-opacity:1" />
</g>
<g
   id="OBJECTS">
	<g
   id="g155">
		<g
   id="g13">
			
				<ellipse
   transform="matrix(0.2422 -0.9702 0.9702 0.2422 -70.1994 211.0046)"
   class="st1"
   cx="99.98"
   cy="150.44"
   rx="40.81"
   ry="40.81"
   id="ellipse7" />
			<circle
   class="st2"
   cx="99.98"
   cy="150.44"
   r="32.19"
   id="circle9" />
			<polyline
   class="st3"
   points="99.98,128.18 99.98,150.44 86.93,158.69    "
   id="polyline11" />
		</g>
		<g
   id="g25">
			<rect
   x="28.72"
   y="360.72"
   class="st4"
   width="439.95"
   height="10.21"
   id="rect15" />
			<polygon
   class="st4"
   points="118.68,397.79 107.79,397.79 106.83,370.93 119.65,370.93    "
   id="polygon17" />
			<polygon
   class="st4"
   points="388.02,397.79 377.13,397.79 376.16,370.93 388.99,370.93    "
   id="polygon19" />
			<polygon
   class="st5"
   points="119.29,380.78 107.18,380.78 106.83,370.93 119.65,370.93    "
   id="polygon21" />
			<polygon
   class="st5"
   points="388.63,380.78 376.52,380.78 376.16,370.93 388.99,370.93    "
   id="polygon23" />
		</g>
		<g
   id="g35">
			<g
   id="g31">
				<path
   class="st6"
   d="M105.76,351.7c2.51,0,8.33-0.33,12.31-3.1c2.62-1.83,3.95-4.3,3.95-7.36c0-3.38-1.37-6.04-4.06-7.9      c-4.36-3.01-10.51-2.61-10.78-2.6l0.49,4.12c0.04,0,4.08-0.23,6.63,1.55c1.5,1.05,2.26,2.67,2.26,4.83      c0,1.89-0.72,3.3-2.18,4.32c-3.28,2.29-9.32,1.99-9.38,1.99l-0.45,4.12C104.61,351.67,105.05,351.7,105.76,351.7z"
   id="path27" />
				<polygon
   class="st6"
   points="111.03,322.5 71.03,322.5 76.95,360.4 104.8,360.4     "
   id="polygon29" />
			</g>
			<path
   class="st2"
   d="M91.22,314.18c2.44-1.83,4.44-3.74,6.34-6.12c1.82-2.38,3.45-5.2,4.15-8.71c0.74-3.5-0.01-7.68-1.93-10.85     c-1.89-3.19-4.45-5.49-7.01-7.35c-0.35-0.26-0.6-0.45-0.84-0.64l-0.74-0.58l-1.45-1.18c-0.94-0.79-1.86-1.59-2.71-2.39     c-1.67-1.56-3.24-3.32-3.71-4.47c-0.23-0.54-0.03-0.81,0.28-0.2c0.13,0.28,0.23,0.74,0.24,1.08c0.01,0.35-0.01,0.58,0.07,0.62     c0.07,0.11,0.58-0.35,1.25-0.84c0.68-0.52,1.57-1.14,2.53-1.8c4.42-3.01,5.56-9.03,2.55-13.45c-3.01-4.42-9.03-5.56-13.45-2.55     c-0.6,0.41-1.15,0.88-1.63,1.39l-0.2,0.22c-1,1.08-2.05,2.23-3.16,3.63c-1.11,1.43-2.32,2.99-3.44,5.45     c-1.11,2.31-1.83,6.11-0.97,9.3c0.8,3.2,2.38,5.25,3.75,6.77c1.41,1.51,2.78,2.57,4.11,3.5c1.33,0.92,2.64,1.73,3.93,2.43     c1.29,0.72,2.57,1.36,3.84,1.98l3.69,1.7c1.9,0.87,3.53,1.93,4.61,3.09c1.05,1.16,1.65,2.38,1.71,4.11     c0.09,3.47-2.48,8.16-5.47,11.6l-0.16,0.19c-1.02,1.17-0.9,2.95,0.28,3.97C88.7,314.94,90.18,314.96,91.22,314.18z"
   id="path33" />
		</g>
		<g
   id="g73">
			<g
   id="g57">
				<rect
   x="323.79"
   y="146.15"
   class="st1"
   width="121.56"
   height="20.59"
   id="rect37" />
				<rect
   x="323.79"
   y="166.74"
   class="st7"
   width="121.56"
   height="69.17"
   id="rect39" />
				<line
   class="st8"
   x1="425.23"
   y1="166.74"
   x2="425.23"
   y2="235.9"
   id="line41" />
				<line
   class="st8"
   x1="404.89"
   y1="166.74"
   x2="404.89"
   y2="235.9"
   id="line43" />
				<line
   class="st8"
   x1="384.55"
   y1="166.74"
   x2="384.55"
   y2="235.9"
   id="line45" />
				<line
   class="st8"
   x1="364.22"
   y1="166.74"
   x2="364.22"
   y2="235.9"
   id="line47" />
				<line
   class="st8"
   x1="343.88"
   y1="166.74"
   x2="343.88"
   y2="235.9"
   id="line49" />
				<line
   class="st8"
   x1="323.79"
   y1="183.48"
   x2="445.36"
   y2="183.48"
   id="line51" />
				<line
   class="st8"
   x1="323.79"
   y1="200.96"
   x2="445.36"
   y2="200.96"
   id="line53" />
				<line
   class="st8"
   x1="323.79"
   y1="218.43"
   x2="445.36"
   y2="218.43"
   id="line55" />
			</g>
			<g
   id="g71">
				<g
   id="g63">
					<g
   id="g61">
						<path
   class="st9"
   d="M408.08,206.73c4.03,3.72,8.4,6.99,13.12,9.79c1.42,0.84,2.7-1.37,1.29-2.21        c-4.53-2.69-8.73-5.81-12.6-9.39C408.68,203.81,406.86,205.61,408.08,206.73L408.08,206.73z"
   id="path59" />
					</g>
				</g>
				<g
   id="g69">
					<g
   id="g67">
						<path
   class="st9"
   d="M421.19,202.98c-5.38,4.99-10.98,9.71-16.83,14.15c-1.29,0.98-0.02,3.2,1.29,2.21        c6.02-4.57,11.8-9.41,17.35-14.55C424.2,203.67,422.39,201.87,421.19,202.98L421.19,202.98z"
   id="path65" />
					</g>
				</g>
			</g>
		</g>
		<line
   class="st10"
   x1="249.06"
   y1="-0.38"
   x2="249.06"
   y2="65.95"
   id="line75" />
		<g
   id="g81">
			<path
   class="st11"
   d="M259.05,59.57h-20.96v-9.14c0-5.79,4.69-10.48,10.48-10.48l0,0c5.79,0,10.48,4.69,10.48,10.48V59.57z"
   id="path77" />
			<path
   class="st2"
   d="M192.68,89.64c0,0,0.99-38.05,54.75-38.05c53.76,0,57.99,38.05,57.99,38.05H192.68z"
   id="path79" />
		</g>
		<g
   id="g133">
			<path
   class="st12"
   d="M332.01,338.09H165.64c-7.01,0-12.69-5.68-12.69-12.69v-6.68H344.7v6.68     C344.7,332.41,339.02,338.09,332.01,338.09z"
   id="path83" />
			<rect
   x="229.53"
   y="338.09"
   class="st6"
   width="39.35"
   height="16.95"
   id="rect85" />
			<path
   class="st1"
   d="M344.7,319.03H152.94V215.85c0-4.9,3.98-8.88,8.88-8.88h174c4.9,0,8.88,3.98,8.88,8.88V319.03z"
   id="path87" />
			<rect
   x="160.73"
   y="215.04"
   class="st13"
   width="177.38"
   height="97.08"
   id="rect89" />
			<path
   class="st2"
   d="M253.15,327.54c0,2.39-1.94,4.33-4.33,4.33c-2.39,0-4.33-1.94-4.33-4.33c0-2.39,1.94-4.33,4.33-4.33     C251.21,323.21,253.15,325.15,253.15,327.54z"
   id="path91" />
			<path
   class="st12"
   d="M285.72,360.72h-73.74l0,0c0-3.13,2.54-5.67,5.67-5.67h62.39C283.18,355.04,285.72,357.59,285.72,360.72     L285.72,360.72z"
   id="path93" />
			<rect
   x="169.64"
   y="330.72"
   class="st2"
   width="26.88"
   height="15.85"
   id="rect95" />
			<rect
   x="177.66"
   y="327.75"
   class="st1"
   width="9.81"
   height="5.93"
   id="rect97" />
			<g
   id="g131">
				<path
   class="st2"
   d="M321.34,302.35h-71.93c-1.91,0-3.45-1.55-3.45-3.45v-68.57c0-1.91,1.55-3.45,3.45-3.45h71.93      c1.91,0,3.45,1.55,3.45,3.45v68.57C324.79,300.8,323.25,302.35,321.34,302.35z"
   id="path99" />
				<path
   class="st2"
   d="M228.41,302.35h-51.34c-1.97,0-3.57-1.6-3.57-3.57V263.6c0-1.97,1.6-3.57,3.57-3.57h51.34      c1.97,0,3.57,1.6,3.57,3.57v35.19C231.98,300.75,230.38,302.35,228.41,302.35z"
   id="path101" />
				<g
   id="g111">
					<g
   id="g107">
						<path
   class="st13"
   d="M224.07,289.98h-42.7c-0.67,0-1.21-0.54-1.21-1.21v-0.12c0-0.67,0.54-1.21,1.21-1.21h42.7        c0.67,0,1.21,0.54,1.21,1.21v0.12C225.28,289.43,224.74,289.98,224.07,289.98z"
   id="path103" />
						<path
   class="st13"
   d="M205.71,295.92h-24.34c-0.67,0-1.21-0.54-1.21-1.21v-0.12c0-0.67,0.54-1.21,1.21-1.21h24.34        c0.67,0,1.21,0.54,1.21,1.21v0.12C206.91,295.38,206.37,295.92,205.71,295.92z"
   id="path105" />
					</g>
					
						<ellipse
   transform="matrix(0.7071 -0.7071 0.7071 0.7071 -138.3248 211.9626)"
   class="st14"
   cx="186.7"
   cy="272.95"
   rx="8.04"
   ry="8.04"
   id="ellipse109" />
				</g>
				<g
   id="g119">
					<path
   class="st2"
   d="M206.91,238.05h-31.71c-0.67,0-1.21-0.54-1.21-1.21v-0.12c0-0.67,0.54-1.21,1.21-1.21h31.71       c0.67,0,1.21,0.54,1.21,1.21v0.12C208.12,237.5,207.58,238.05,206.91,238.05z"
   id="path113" />
					<path
   class="st2"
   d="M219.84,253.99h-44.63c-0.67,0-1.21-0.54-1.21-1.21v-0.12c0-0.67,0.54-1.21,1.21-1.21h44.63       c0.67,0,1.21,0.54,1.21,1.21v0.12C221.04,253.45,220.5,253.99,219.84,253.99z"
   id="path115" />
					<path
   class="st2"
   d="M230.45,245.98h-55.25c-0.67,0-1.21-0.54-1.21-1.21v-0.12c0-0.67,0.54-1.21,1.21-1.21h55.25       c0.67,0,1.21,0.54,1.21,1.21v0.12C231.66,245.44,231.12,245.98,230.45,245.98z"
   id="path117" />
				</g>
				<g
   id="g129">
					<rect
   x="260.82"
   y="240.51"
   class="st14"
   width="49.36"
   height="49.36"
   id="rect121" />
					<circle
   class="st12"
   cx="297"
   cy="261.88"
   r="7.59"
   id="circle123" />
					<polygon
   class="st2"
   points="287.32,274.4 296.13,263.86 310.81,277.13 310.81,289.86 287.32,289.86      "
   id="polygon125" />
					<polygon
   class="st1"
   points="260.82,274.21 270.77,258.93 302.46,289.86 260.82,289.86      "
   id="polygon127" />
				</g>
			</g>
		</g>
		<g
   id="g153">
			<g
   id="g149">
				<g
   id="g147">
					<g
   id="g139">
						<path
   class="st15"
   d="M371.74,315.21c-4.6,0-8.32,3.73-8.32,8.32s3.73,8.32,8.32,8.32h81.18v-3.93h-79.8        c-2.42,0-4.39-1.97-4.39-4.39c0-2.42,1.97-4.39,4.39-4.39h79.8v-3.93H371.74z"
   id="path135" />
						<path
   class="st2"
   d="M368.73,323.53c0,2.42,1.97,4.39,4.39,4.39h76.06v-8.78h-76.06C370.69,319.14,368.73,321.1,368.73,323.53        z"
   id="path137" />
					</g>
					<g
   id="g145">
						<path
   class="st12"
   d="M372.94,331.92c-7.78,0-14.08,6.3-14.08,14.08s6.3,14.08,14.08,14.08h71.79v-5.19h-70.9        c-4.89,0-8.85-3.96-8.85-8.85l0,0c0-4.89,3.96-8.85,8.85-8.85h70.9v-5.27H372.94z"
   id="path141" />
						<path
   class="st2"
   d="M364.98,346.04L364.98,346.04c0,4.89,3.96,8.85,8.85,8.85h67.32v-17.7h-67.32        C368.94,337.19,364.98,341.15,364.98,346.04z"
   id="path143" />
					</g>
				</g>
			</g>
			<polygon
   class="st15"
   points="377.78,343.08 385.77,343.08 385.77,351.91 381.77,349.5 377.78,351.91    "
   id="polygon151" />
		</g>
	</g>
</g>
<g
   id="DESIGNED_BY_FREEPIK"
   style="opacity:0">
	<g
   id="g194">
		<g
   id="XMLID_319_">
			<g
   id="XMLID_338_">
				<path
   id="XMLID_346_"
   class="st16"
   d="M260.1,465.47c-0.43,0.44-0.8,0.93-1.11,1.45l-0.47-0.24c-0.07-0.3-0.35-0.5-0.66-0.47      c-0.33,0.04-0.57,0.34-0.53,0.67s0.34,0.57,0.67,0.53c0.07-0.01,0.13-0.03,0.18-0.05l0.45,0.23c-0.25,0.55-0.43,1.14-0.54,1.74      l0.75,0.13c0.23-1.31,0.85-2.51,1.79-3.47L260.1,465.47z" />
				<path
   id="XMLID_345_"
   class="st16"
   d="M265.59,463.16c-0.17,0-0.34,0.01-0.51,0.02l-0.07-0.63c0.19-0.15,0.3-0.39,0.27-0.64      c-0.05-0.39-0.4-0.67-0.8-0.63s-0.67,0.4-0.63,0.8c0.03,0.25,0.19,0.46,0.4,0.56l0.07,0.62c-0.71,0.12-1.4,0.33-2.06,0.65      l0.33,0.68c0.93-0.45,1.94-0.67,3-0.67c0.5,0,0.99,0.05,1.48,0.16l0.16-0.74C266.69,463.22,266.14,463.16,265.59,463.16z" />
				<path
   id="XMLID_344_"
   class="st16"
   d="M272.19,465.71c0.33-0.04,0.57-0.34,0.53-0.67c-0.04-0.33-0.34-0.57-0.67-0.53      c-0.31,0.04-0.54,0.3-0.53,0.61l-0.42,0.36c-0.42-0.43-0.89-0.81-1.41-1.14l-0.4,0.64c1.13,0.71,2.02,1.73,2.56,2.93l0.69-0.31      c-0.25-0.55-0.57-1.07-0.94-1.55l0.4-0.35C272.06,465.72,272.13,465.72,272.19,465.71z" />
				<path
   id="XMLID_343_"
   class="st16"
   d="M265.04,473.37c-0.39,0.02-0.77,0.03-1.16,0.03c-0.88,0-1.73-0.06-2.48-0.18      c-0.39-0.06-0.85-0.15-1.27-0.29c1.05,1.86,3.07,3.12,5.39,3.12c2.86,0,5.26-1.92,5.95-4.5c-0.68,0.45-1.51,0.83-2.46,1.12      C267.84,473.05,266.46,473.29,265.04,473.37z" />
				<path
   id="XMLID_339_"
   class="st16"
   d="M265.59,464.68c-3.35,0-6.08,2.67-6.08,5.94c0,0.43,0.05,0.85,0.14,1.26      c0.67,0.48,2.71,0.89,5.35,0.73c2.88-0.17,5.3-0.96,6.67-2.16c-0.01-0.19-0.02-0.39-0.05-0.58      C271.24,466.91,268.65,464.68,265.59,464.68z M263.43,471.19c-1.02,0-1.85-0.83-1.85-1.85c0-1.02,0.83-1.85,1.85-1.85      c1.02,0,1.85,0.83,1.85,1.85C265.28,470.36,264.45,471.19,263.43,471.19z M268.17,470.29c-0.75,0-1.36-0.61-1.36-1.36      s0.61-1.36,1.36-1.36c0.75,0,1.36,0.61,1.36,1.36S268.92,470.29,268.17,470.29z" />
			</g>
			<path
   id="XMLID_336_"
   class="st16"
   d="M281.6,466.55c-0.29-0.12-0.81-0.31-1.38-0.24c-0.55,0.07-0.84,0.34-0.84,1.01v0.87h2.23     v1.72h-2.23v5.45h-1.93v-5.45h-1.34v-1.72h1.34v-0.89c0-1.68,0.9-2.78,2.57-2.78c0.64,0,1.16,0.12,1.59,0.31L281.6,466.55z" />
			<path
   id="XMLID_334_"
   class="st16"
   d="M286.3,469.88c-0.18-0.03-0.36-0.05-0.53-0.05c-0.9,0-1.51,0.55-1.51,1.61v3.91h-1.93     v-7.17h1.87v0.78c0.45-0.67,1.14-0.98,2.02-0.98c0.41,0,0.85,0.13,1.09,0.34L286.3,469.88z" />
			<path
   id="XMLID_331_"
   class="st16"
   d="M293.97,471.76c0,0.22-0.01,0.49-0.04,0.65h-5.08c0.21,1.04,0.93,1.49,1.84,1.49     c0.62,0,1.3-0.25,1.81-0.69l1.13,1.24c-0.81,0.75-1.85,1.09-3.06,1.09c-2.2,0-3.72-1.5-3.72-3.75c0-2.26,1.48-3.8,3.63-3.8     C292.54,467.99,293.96,469.52,293.97,471.76z M288.85,471.09h3.18c-0.18-0.92-0.73-1.44-1.56-1.44     C289.55,469.65,289.02,470.2,288.85,471.09z" />
			<path
   id="XMLID_328_"
   class="st16"
   d="M301.62,471.76c0,0.22-0.02,0.49-0.04,0.65h-5.08c0.21,1.04,0.93,1.49,1.84,1.49     c0.62,0,1.3-0.25,1.81-0.69l1.13,1.24c-0.81,0.75-1.85,1.09-3.06,1.09c-2.2,0-3.72-1.5-3.72-3.75c0-2.26,1.48-3.8,3.63-3.8     C300.2,467.99,301.61,469.52,301.62,471.76z M296.5,471.09h3.18c-0.18-0.92-0.73-1.44-1.56-1.44     C297.21,469.65,296.67,470.2,296.5,471.09z" />
			<path
   id="XMLID_325_"
   class="st16"
   d="M309.96,471.76c0,2.15-1.5,3.77-3.47,3.77c-0.96,0-1.64-0.38-2.11-0.93v3.71h-1.92v-10.13     h1.89v0.79c0.47-0.58,1.15-0.98,2.14-0.98C308.47,467.99,309.96,469.61,309.96,471.76z M304.29,471.76     c0,1.13,0.75,1.98,1.84,1.98c1.14,0,1.85-0.88,1.85-1.98c0-1.1-0.71-1.98-1.85-1.98C305.03,469.79,304.29,470.63,304.29,471.76z" />
			<path
   id="XMLID_322_"
   class="st16"
   d="M313.07,465.84c0,0.7-0.54,1.23-1.24,1.23c-0.7,0-1.23-0.53-1.23-1.23     c0-0.7,0.53-1.24,1.23-1.24C312.53,464.59,313.07,465.14,313.07,465.84z M312.81,475.35h-1.93v-7.17h1.93V475.35z" />
			<path
   id="XMLID_320_"
   class="st16"
   d="M316.03,470.74l2.7-2.55h2.37l-3.48,3.38l3.5,3.8h-2.38l-2.72-2.9v2.9h-1.93V464.7h1.93     V470.74z" />
		</g>
		<g
   id="g192">
			<path
   class="st16"
   d="M184.41,475.29v-1.05c-0.53,0.72-1.39,1.23-2.39,1.23c-1.85,0-3.15-1.41-3.15-3.71     c0-2.26,1.29-3.72,3.15-3.72c0.95,0,1.82,0.47,2.39,1.25v-3.76h1.1v9.77H184.41z M184.41,473.37v-3.21     c-0.4-0.62-1.24-1.14-2.12-1.14c-1.42,0-2.27,1.17-2.27,2.74c0,1.57,0.85,2.72,2.27,2.72     C183.17,474.48,184.02,473.99,184.41,473.37z"
   id="path172" />
			<path
   class="st16"
   d="M186.93,471.74c0-2.05,1.46-3.71,3.49-3.71c2.14,0,3.4,1.67,3.4,3.79v0.28h-5.73     c0.09,1.33,1.03,2.45,2.55,2.45c0.81,0,1.63-0.32,2.18-0.89l0.53,0.72c-0.7,0.7-1.65,1.08-2.81,1.08     C188.44,475.46,186.93,473.96,186.93,471.74z M190.4,468.95c-1.51,0-2.26,1.27-2.31,2.36h4.64     C192.72,470.25,192.01,468.95,190.4,468.95z"
   id="path174" />
			<path
   class="st16"
   d="M194.61,474.35l0.57-0.79c0.47,0.54,1.36,1.01,2.33,1.01c1.08,0,1.67-0.51,1.67-1.22     c0-1.71-4.38-0.66-4.38-3.28c0-1.1,0.95-2.04,2.64-2.04c1.2,0,2.05,0.45,2.62,1.03l-0.51,0.76c-0.42-0.51-1.2-0.89-2.11-0.89     c-0.97,0-1.57,0.48-1.57,1.11c0,1.55,4.38,0.53,4.38,3.28c0,1.19-0.95,2.14-2.78,2.14C196.31,475.46,195.32,475.11,194.61,474.35     z"
   id="path176" />
			<path
   class="st16"
   d="M201.48,466.47c0-0.41,0.34-0.75,0.73-0.75c0.41,0,0.75,0.34,0.75,0.75c0,0.41-0.34,0.73-0.75,0.73     C201.81,467.2,201.48,466.88,201.48,466.47z M201.67,475.29v-7.07h1.1v7.07H201.67z"
   id="path178" />
			<path
   class="st16"
   d="M204.58,477.11l0.56-0.82c0.59,0.7,1.29,0.97,2.3,0.97c1.17,0,2.27-0.57,2.27-2.12v-1.01     c-0.51,0.72-1.38,1.26-2.37,1.26c-1.85,0-3.15-1.38-3.15-3.66c0-2.27,1.29-3.68,3.15-3.68c0.95,0,1.8,0.47,2.37,1.25v-1.07h1.1     v6.87c0,2.34-1.64,3.08-3.37,3.08C206.24,478.16,205.42,477.93,204.58,477.11z M209.71,473.25v-3.09     c-0.38-0.62-1.23-1.14-2.11-1.14c-1.42,0-2.27,1.13-2.27,2.7c0,1.55,0.85,2.7,2.27,2.7     C208.48,474.41,209.33,473.87,209.71,473.25z"
   id="path180" />
			<path
   class="st16"
   d="M217.41,475.29v-4.63c0-1.24-0.63-1.64-1.58-1.64c-0.86,0-1.68,0.53-2.09,1.1v5.17h-1.1v-7.07h1.1v1.03     c0.5-0.59,1.46-1.2,2.52-1.2c1.48,0,2.26,0.75,2.26,2.29v4.97H217.41z"
   id="path182" />
			<path
   class="st16"
   d="M219.93,471.74c0-2.05,1.46-3.71,3.49-3.71c2.14,0,3.4,1.67,3.4,3.79v0.28h-5.73     c0.09,1.33,1.03,2.45,2.55,2.45c0.81,0,1.63-0.32,2.18-0.89l0.53,0.72c-0.7,0.7-1.66,1.08-2.81,1.08     C221.44,475.46,219.93,473.96,219.93,471.74z M223.4,468.95c-1.51,0-2.26,1.27-2.31,2.36h4.64     C225.72,470.25,225.02,468.95,223.4,468.95z"
   id="path184" />
			<path
   class="st16"
   d="M233.35,475.29v-1.05c-0.53,0.72-1.39,1.23-2.39,1.23c-1.85,0-3.15-1.41-3.15-3.71     c0-2.26,1.29-3.72,3.15-3.72c0.95,0,1.82,0.47,2.39,1.25v-3.76h1.1v9.77H233.35z M233.35,473.37v-3.21     c-0.4-0.62-1.25-1.14-2.12-1.14c-1.42,0-2.27,1.17-2.27,2.74c0,1.57,0.85,2.72,2.27,2.72     C232.1,474.48,232.95,473.99,233.35,473.37z"
   id="path186" />
			<path
   class="st16"
   d="M239.69,475.29v-9.77h1.1v3.76c0.57-0.78,1.42-1.25,2.39-1.25c1.85,0,3.15,1.46,3.15,3.72     c0,2.3-1.3,3.71-3.15,3.71c-1,0-1.86-0.51-2.39-1.23v1.05H239.69z M242.9,474.48c1.44,0,2.29-1.16,2.29-2.72     c0-1.57-0.85-2.74-2.29-2.74c-0.86,0-1.73,0.53-2.11,1.14v3.21C241.17,473.99,242.04,474.48,242.9,474.48z"
   id="path188" />
			<path
   class="st16"
   d="M247.53,477.06c0.16,0.07,0.43,0.12,0.6,0.12c0.48,0,0.81-0.16,1.05-0.75l0.47-1.07l-2.96-7.15h1.19     l2.36,5.8l2.34-5.8h1.2l-3.54,8.51c-0.42,1.03-1.14,1.42-2.08,1.44c-0.23,0-0.6-0.04-0.81-0.1L247.53,477.06z"
   id="path190" />
		</g>
	</g>
</g>
</svg>
