<?xml version="1.0" encoding="utf-8"?>
<!-- Generator: Adobe Illustrator 25.0.1, SVG Export Plug-In . SVG Version: 6.00 Build 0)  -->
<svg version="1.1" xmlns="http://www.w3.org/2000/svg" xmlns:xlink="http://www.w3.org/1999/xlink" x="0px" y="0px"
	 viewBox="0 0 750 500" style="enable-background:new 0 0 750 500;" xml:space="preserve">
<style type="text/css">
	.st0{fill:#1C4B82;}
	.st1{fill:#672ED6;}
	.st2{fill:none;stroke:#672ED6;stroke-miterlimit:10;}
	.st3{fill:none;stroke:#672ED6;stroke-width:0.75;stroke-linecap:round;stroke-linejoin:round;stroke-miterlimit:10;}
	.st4{fill:none;stroke:#DB7294;stroke-width:0.75;stroke-linecap:round;stroke-linejoin:round;stroke-miterlimit:10;}
	.st5{fill:none;stroke:#EEDA36;stroke-width:0.75;stroke-linecap:round;stroke-linejoin:round;stroke-miterlimit:10;}
	.st6{fill:#D96980;}
	.st7{fill:none;stroke:#FFFFFF;stroke-miterlimit:10;}
	.st8{fill:#E4B0C8;}
	.st9{fill:none;stroke:#D96980;stroke-miterlimit:10;}
	.st10{fill:none;stroke:#9E88E5;stroke-miterlimit:10;}
	.st11{fill:none;stroke:#EEDA36;stroke-miterlimit:10;}
	.st12{fill:#EEDA36;}
	.st13{fill:none;stroke:#D7D4FC;stroke-miterlimit:10;}
	.st14{fill:none;stroke:#C1C0FF;stroke-miterlimit:10;stroke-dasharray:4;}
	.st15{fill:#DD6B4D;}
	.st16{clip-path:url(#SVGID_2_);}
	.st17{fill:#FFFFFF;stroke:#000000;stroke-miterlimit:10;}
	.st18{fill:#FFFFFF;}
	.st19{fill:none;stroke:#1C191B;stroke-miterlimit:10;}
	.st20{fill:#FFFFFF;stroke:#1C191B;stroke-miterlimit:10;}
	.st21{fill:#EEDA36;stroke:#000000;stroke-miterlimit:10;}
	.st22{fill:#EEDA36;stroke:#1C191B;stroke-miterlimit:10;}
	.st23{fill:none;stroke:#020202;stroke-miterlimit:10;}
	.st24{fill:none;stroke:#0C0C0C;stroke-miterlimit:10;}
	.st25{fill:#DB7294;}
	.st26{fill:none;stroke:#000000;stroke-miterlimit:10;}
	.st27{fill:#1C4B82;stroke:#000000;stroke-miterlimit:10;}
	.st28{fill:#DB7294;stroke:#000000;stroke-miterlimit:10;}
	.st29{stroke:#1C191B;stroke-miterlimit:10;}
	.st30{fill:#0C0C0C;}
	.st31{fill:#FFF7F7;stroke:#0C0C0C;stroke-miterlimit:10;}
	.st32{clip-path:url(#SVGID_4_);}
	.st33{fill:none;stroke:#000000;stroke-width:2;stroke-miterlimit:10;}
	.st34{fill:#672ED6;stroke:#211F21;stroke-miterlimit:10;}
	.st35{fill:#141414;}
	.st36{fill:#F7F6F6;}
	.st37{fill:#090909;}
	.st38{fill:none;}
	.st39{clip-path:url(#SVGID_6_);}
	.st40{fill:#672ED6;stroke:#000000;stroke-width:0.909;stroke-miterlimit:10;}
	.st41{fill:#672ED6;stroke:#000000;stroke-width:0.9716;stroke-miterlimit:10;}
	.st42{fill:none;stroke:#000000;stroke-width:1.8801;stroke-miterlimit:10;}
	.st43{fill:#FFFFFF;stroke:#000000;stroke-width:0.94;stroke-miterlimit:10;}
	.st44{fill:#FFF7F7;}
	.st45{fill:#020202;}
	.st46{fill:#EEDA36;stroke:#000000;stroke-width:0.94;stroke-miterlimit:10;}
	.st47{fill:none;stroke:#000000;stroke-width:0.94;stroke-miterlimit:10;}
	.st48{clip-path:url(#SVGID_8_);}
	.st49{fill:#E4B0C8;stroke:#020106;stroke-miterlimit:10;}
	.st50{fill:#DB7294;stroke:#020106;stroke-miterlimit:10;}
	.st51{fill:none;stroke:#020106;stroke-miterlimit:10;}
	.st52{fill:#FFFFFF;stroke:#020106;stroke-miterlimit:10;}
	.st53{font-family:'MyriadPro-Regular';}
	.st54{font-size:12px;}
	.st55{fill:#672ED6;stroke:#000000;stroke-miterlimit:10;}
	.st56{fill:#9E88E5;}
	.st57{fill:none;stroke:#DB7294;stroke-miterlimit:10;}
	.st58{fill:none;stroke:#DB7294;stroke-miterlimit:10;stroke-dasharray:3.8539,3.8539;}
	.st59{clip-path:url(#SVGID_10_);}
	.st60{fill:#FEFEFF;stroke:#000000;stroke-miterlimit:10;}
	.st61{fill:none;stroke:#000000;}
	.st62{font-family:'Montserrat-ExtraBold';}
	.st63{font-size:32.1688px;}
	.st64{fill:#DD6B4D;stroke:#000000;stroke-miterlimit:10;}
</style>
<g id="BACKGROUND">
	<rect class="st0" width="750" height="500"/>
</g>
<g id="OBJECTS">
	<g>
		<g>
			<g>
				<g>
					<path class="st1" d="M298.13,426.69l2.9,2.9c1.56-1.56,3.63-2.42,5.84-2.42c2.21,0,4.28,0.86,5.84,2.42l2.9-2.9
						c-2.34-2.34-5.44-3.62-8.74-3.62C303.57,423.06,300.47,424.35,298.13,426.69z"/>
					<path class="st1" d="M293.31,421.87l2.9,2.9c2.85-2.85,6.63-4.41,10.66-4.41c4.03,0,7.81,1.57,10.66,4.41l2.9-2.9
						c-3.62-3.62-8.44-5.62-13.56-5.62C301.75,416.25,296.93,418.25,293.31,421.87z"/>
					<path class="st1" d="M306.87,409.44c-6.94,0-13.47,2.7-18.38,7.61l2.9,2.9c4.13-4.13,9.63-6.41,15.48-6.41
						s11.34,2.28,15.48,6.41l2.9-2.9C320.35,412.14,313.82,409.44,306.87,409.44z"/>
					<path class="st1" d="M306.87,429.59c-1.94,0-3.51,1.57-3.51,3.51c0,1.94,1.57,3.51,3.51,3.51c1.94,0,3.51-1.57,3.51-3.51
						C310.38,431.16,308.81,429.59,306.87,429.59z"/>
				</g>
				<g>
					<path class="st2" d="M364.95,155.19l2.9,2.9c1.56-1.56,3.63-2.42,5.84-2.42c2.21,0,4.28,0.86,5.84,2.42l2.9-2.9
						c-2.34-2.34-5.44-3.62-8.74-3.62C370.4,151.57,367.29,152.86,364.95,155.19z"/>
					<path class="st2" d="M360.14,150.38l2.9,2.9c2.85-2.85,6.63-4.41,10.66-4.41c4.03,0,7.81,1.57,10.66,4.41l2.9-2.9
						c-3.62-3.62-8.44-5.62-13.56-5.62C368.58,144.76,363.76,146.75,360.14,150.38z"/>
					<path class="st2" d="M373.7,137.94c-6.94,0-13.47,2.7-18.38,7.61l2.9,2.9c4.13-4.13,9.63-6.41,15.48-6.41
						c5.85,0,11.34,2.28,15.48,6.41l2.9-2.9C387.17,140.65,380.64,137.94,373.7,137.94z"/>
					<circle class="st2" cx="373.7" cy="161.6" r="3.51"/>
				</g>
				<g>
					<line class="st3" x1="425.94" y1="276.34" x2="425.94" y2="285.33"/>
					<line class="st3" x1="421.44" y1="280.84" x2="430.43" y2="280.84"/>
				</g>
				<g>
					<line class="st4" x1="101.92" y1="362.86" x2="101.92" y2="371.85"/>
					<line class="st4" x1="97.42" y1="367.36" x2="106.42" y2="367.36"/>
				</g>
				<g>
					<line class="st4" x1="178.02" y1="421.83" x2="178.02" y2="430.82"/>
					<line class="st4" x1="173.52" y1="426.33" x2="182.52" y2="426.33"/>
				</g>
				<g>
					<line class="st4" x1="700.54" y1="350.08" x2="700.54" y2="359.08"/>
					<line class="st4" x1="696.05" y1="354.58" x2="705.04" y2="354.58"/>
				</g>
				<g>
					<line class="st4" x1="295.3" y1="150.34" x2="295.3" y2="159.33"/>
					<line class="st4" x1="290.8" y1="154.83" x2="299.79" y2="154.83"/>
				</g>
				<g>
					<line class="st3" x1="110.33" y1="115.39" x2="110.33" y2="124.39"/>
					<line class="st3" x1="105.83" y1="119.89" x2="114.82" y2="119.89"/>
				</g>
				<g>
					<line class="st5" x1="156.63" y1="268.64" x2="156.63" y2="277.64"/>
					<line class="st5" x1="152.13" y1="273.14" x2="161.13" y2="273.14"/>
				</g>
				<g>
					<line class="st5" x1="337.64" y1="383.41" x2="337.64" y2="392.41"/>
					<line class="st5" x1="333.14" y1="387.91" x2="342.13" y2="387.91"/>
				</g>
				<circle class="st5" cx="254.53" cy="153.26" r="3.09"/>
				<g>
					
						<ellipse transform="matrix(0.862 -0.5069 0.5069 0.862 -93.8642 383.0215)" class="st6" cx="656.47" cy="363.89" rx="19.86" ry="19.86"/>
					<g>
						<rect x="645.12" y="355.5" class="st7" width="23.29" height="17.5"/>
						<polyline class="st7" points="645.12,355.5 656.76,366.25 668.41,355.5 						"/>
					</g>
				</g>
				<g>
					
						<ellipse transform="matrix(0.2898 -0.9571 0.9571 0.2898 -323.6173 384.7253)" class="st8" cx="97.42" cy="410.42" rx="16.45" ry="16.45"/>
					<g>
						<rect x="88.02" y="403.46" class="st7" width="19.29" height="14.49"/>
						<polyline class="st7" points="88.02,403.46 97.67,412.38 107.31,403.46 						"/>
					</g>
				</g>
				<g>
					<circle class="st8" cx="279.4" cy="126.87" r="10.46"/>
					<g>
						<rect x="273.42" y="122.45" class="st7" width="12.26" height="9.21"/>
						<polyline class="st7" points="273.42,122.45 279.55,128.11 285.68,122.45 						"/>
					</g>
				</g>
				<polygon class="st6" points="178.02,236.28 180.84,241.17 183.67,246.06 178.02,246.06 172.37,246.06 175.2,241.17 				"/>
				<polygon class="st9" points="421.84,379.5 428.29,385.16 434.73,390.82 426.61,393.57 418.48,396.32 420.16,387.91 				"/>
				<polygon class="st9" points="61.97,115.61 59.73,123.89 57.48,132.16 51.43,126.08 45.39,120 53.68,117.8 				"/>
				<polygon class="st10" points="700.53,397.63 698.59,404.81 696.64,411.99 691.4,406.72 686.15,401.44 693.34,399.54 				"/>
				<path class="st9" d="M242.23,404.81c0,2.55-2.07,4.62-4.62,4.62c-2.55,0-4.62-2.07-4.62-4.62c0-2.55,2.07-4.62,4.62-4.62
					C240.16,400.19,242.23,402.26,242.23,404.81z"/>
				<path class="st9" d="M407.99,104.67c0,3.6-2.92,6.52-6.52,6.52c-3.6,0-6.52-2.92-6.52-6.52c0-3.6,2.92-6.52,6.52-6.52
					C405.07,98.15,407.99,101.07,407.99,104.67z"/>
				<path class="st6" d="M278.79,280.32c0,2.29-1.86,4.14-4.14,4.14c-2.29,0-4.14-1.86-4.14-4.14c0-2.29,1.86-4.14,4.14-4.14
					C276.93,276.17,278.79,278.03,278.79,280.32z"/>
				<path class="st6" d="M412.14,425.77c0,2.29-1.86,4.14-4.14,4.14c-2.29,0-4.14-1.86-4.14-4.14c0-2.29,1.86-4.14,4.14-4.14
					C410.28,421.62,412.14,423.48,412.14,425.77z"/>
				<path class="st8" d="M287.58,364.59c0,1.37-1.11,2.47-2.47,2.47c-1.37,0-2.47-1.11-2.47-2.47s1.11-2.47,2.47-2.47
					C286.48,362.12,287.58,363.22,287.58,364.59z"/>
				
					<ellipse transform="matrix(0.9232 -0.3844 0.3844 0.9232 -116.9243 266.5541)" class="st9" cx="608.33" cy="425.77" rx="7.33" ry="7.33"/>
				<circle class="st2" cx="490.32" cy="295.59" r="6.43"/>
				<circle class="st2" cx="65.41" cy="340.89" r="5.79"/>
				<path class="st1" d="M676.84,291.69c0,2.76-2.24,5-5,5c-2.76,0-5-2.24-5-5c0-2.76,2.24-5,5-5
					C674.6,286.69,676.84,288.93,676.84,291.69z"/>
				<path class="st2" d="M384.44,411.25c0,2.76-2.24,5-5,5c-2.76,0-5-2.24-5-5c0-2.76,2.24-5,5-5
					C382.2,406.24,384.44,408.48,384.44,411.25z"/>
				<path class="st11" d="M618.83,391.9c0,0,8.3-0.81,10.47,4.43c2.17,5.24,3.04,10.31,16.07,3.87"/>
				<path class="st11" d="M72.53,172.21c0,0-1.1,7.6-6.26,8.39c-5.16,0.79-9.89,0.45-7,13.52"/>
				<path class="st11" d="M325.26,107.19c0,0,8.3-0.81,10.47,4.43c2.17,5.24,3.04,10.31,16.07,3.87"/>
				<path class="st12" d="M365.31,225.58c0,2.07-1.68,3.75-3.75,3.75s-3.75-1.68-3.75-3.75c0-2.07,1.68-3.75,3.75-3.75
					S365.31,223.51,365.31,225.58z"/>
				
					<ellipse transform="matrix(0.7932 -0.6089 0.6089 0.7932 -31.0097 121.6016)" class="st13" cx="163.55" cy="106.46" rx="4.71" ry="4.71"/>
			</g>
			<g>
				<path class="st14" d="M130.06,337.66c-47,0-85.1-36.16-85.1-80.76c0-31.53,19.03-58.83,46.79-72.13"/>
				<path class="st14" d="M313.85,356.37c3.45,31.58-20.3,60.08-53.06,63.66c-32.76,3.58-62.12-19.11-65.57-50.68"/>
				<ellipse class="st14" cx="382.3" cy="145.74" rx="57.99" ry="56.71"/>
				<ellipse class="st14" cx="204.8" cy="222.65" rx="55.33" ry="54.1"/>
				<ellipse class="st14" cx="458.24" cy="301.61" rx="54.25" ry="50.14"/>
			</g>
		</g>
		<g>
			<g>
				<g>
					<g>
						<path class="st15" d="M258.01,391.9H129.67c-5.16,0-9.35-4.18-9.35-9.35v-82.6c0-5.16,4.18-9.35,9.35-9.35h128.34
							c5.16,0,9.35,4.18,9.35,9.35v82.6C267.36,387.71,263.17,391.9,258.01,391.9z"/>
						<g>
							<path class="st0" d="M248.28,373.71H139.4c-5.16,0-9.35-4.18-9.35-9.35v-58.52c0-5.16,4.18-9.35,9.35-9.35h108.87
								c5.16,0,9.35,4.18,9.35,9.35v58.52C257.62,369.52,253.44,373.71,248.28,373.71z"/>
							<path d="M168.18,331.78c0,0-6.92,21.81,7.22,26.63c14.15,4.82,15.73,0.83,18.88,8.36c3.14,7.53,15.74,4.28,16.94-7.31
								c1.2-11.59-7.35-10.69-11.8-11.29c-4.45-0.6-7.42-8.78-7.38-13.04C192.09,330.88,169.78,322.9,168.18,331.78z"/>
							<g>
								<defs>
									<path id="SVGID_1_" d="M248.28,373.71H139.4c-5.16,0-9.35-4.18-9.35-9.35v-58.52c0-5.16,4.18-9.35,9.35-9.35h108.87
										c5.16,0,9.35,4.18,9.35,9.35v58.52C257.62,369.52,253.44,373.71,248.28,373.71z"/>
								</defs>
								<clipPath id="SVGID_2_">
									<use xlink:href="#SVGID_1_"  style="overflow:visible;"/>
								</clipPath>
								<g class="st16">
									<g>
										<path class="st17" d="M183.87,352.24c0,0,15.08,0.92,30.64,15.54c15.56,14.62,15.15,52.35,15.15,52.35l-46.45-1.19
											L183.87,352.24z"/>
										<g>
											<path class="st18" d="M199.81,364.73c10.41,7.78,31.59,54.03,24.87,54.19c-6.73,0.16-87.01-0.48-89.53-2.98
												c-2.52-2.49,8.41-24.54,8.41-24.54s16.89-34.71,43.04-34.92C195.31,356.41,188.7,356.42,199.81,364.73z"/>
											<path class="st19" d="M157.15,393.18c0,0-7.36,20.62-5.66,22.95c1.7,2.33,55.74,2.94,60.27,2.79
												c4.53-0.15-3.14-32.66-6.98-42.01"/>
										</g>
									</g>
									<g>
										<path class="st20" d="M185.43,403.97c0,0,6.06-4.06,21.73-0.2c0,0,3.04,1.37,0.71,1.99c-2.33,0.62-8.15-0.32-8.15-0.32
											s9.02,0.82,9.23,2.39c0.2,1.57-8.51,0.04-8.51,0.04s9.39,1.48,9.27,3.07c-0.11,1.59-5.33-0.18-10.4,0.18
											c-5.07,0.36-14.31,4.08-15.74,3.05C182.14,413.15,179.02,406.35,185.43,403.97z"/>
										<g>
											<path class="st17" d="M180.35,352.24c-9.36,0.08-19.62,2.99-29.56,11.1c-13.57,11.06-36.58,45.83-26.53,63.78
												c10.05,17.95,33.19,10.95,41.2,7.34c8.01-3.61,23.69-15.63,25.4-20.55c2-5.76,1.13-9.82-6.1-11.63
												c-7.22-1.81-33.75,1.02-38.95,4.4"/>
											<path class="st21" d="M190.87,413.91c1.96-5.63,1.15-9.63-5.63-11.49c-0.36,1.81-0.45,3.97-0.19,6.27
												c0.44,3.84,1.75,7.09,3.36,8.82C189.66,416.12,190.53,414.88,190.87,413.91z"/>
										</g>
									</g>
									<path class="st22" d="M169.11,380.15c0,0-7.91-5.79-4.86-8.46c3.05-2.67,5.67,2.84,5.67,2.84s1.84-4.83,4.46-3.22
										C176.99,372.92,169.11,380.15,169.11,380.15z"/>
								</g>
							</g>
							<g>
								<path class="st22" d="M188.84,355.44c0,2.73-3.8,4.95-8.49,4.95c-4.69,0-8.49-2.21-8.49-4.95c0-2.73,3.8-4.95,8.49-4.95
									C185.04,350.5,188.84,352.71,188.84,355.44z"/>
								<path class="st17" d="M164.54,331.78c0,3.45,2.82,6.25,6.31,6.25s6.31-2.8,6.31-6.25c0-3.45-2.82-6.25-6.31-6.25
									S164.54,328.33,164.54,331.78z"/>
								<path class="st17" d="M190.79,313.5h-7.46c-4.96,0-9.02,4.62-9.02,10.27v11.57c0,0.33,0.02,0.65,0.04,0.97
									c-0.08,0.34-0.13,0.69-0.13,1.06v7.04v0.39v7.04c0,2.55,2.09,4.65,4.65,4.65h2.96c2.55,0,4.65-2.09,4.65-4.65v-6.23h4.31
									c4.96,0,9.02-4.62,9.02-10.27v-11.57C199.81,318.12,195.75,313.5,190.79,313.5z"/>
								<g>
									<g>
										<path d="M173.68,328.97c0,0,7.32-2.43,9.53-7.15c2.22-4.72,1.67-5.74,1.67-5.74s4.12,5.65,10.64,7.03
											c5.38,1.15,5.16,0.35,5.69-0.9c0.49-1.15,0.82-9.12-7.36-14.02c-8.17-4.9-16.95-4.42-23,1.69
											c-6.06,6.11-5.32,15.73-3.28,18.14C169.61,330.42,172.29,331.77,173.68,328.97z"/>
									</g>
									<ellipse transform="matrix(0.2298 -0.9732 0.9732 0.2298 -159.4016 396.5806)" cx="170.85" cy="299" rx="7.3" ry="7.3"/>
								</g>
								<g>
									<path class="st18" d="M164.91,331.78c0,3.25,2.66,5.89,5.94,5.89s5.94-2.64,5.94-5.89c0-3.25-2.66-5.89-5.94-5.89
										S164.91,328.53,164.91,331.78z"/>
									<path class="st23" d="M174.06,332.56c0,0,0.26-4-3.85-3.56"/>
								</g>
								<g>
									<g>
										<circle cx="186.56" cy="327.55" r="1.68"/>
										<path d="M195.89,327.3c0,0.79,0.64,1.44,1.44,1.44c0.79,0,1.44-0.64,1.44-1.44c0-0.79-0.64-1.44-1.44-1.44
											C196.53,325.86,195.89,326.51,195.89,327.3z"/>
									</g>
									<path class="st24" d="M194.28,334.18c0,0-0.85,2.46-2.63,2.63c-1.79,0.17-3.19-1.81-3.28-3.36"/>
									<g>
										<path class="st8" d="M179.03,333.73c0,2.31,1.87,4.18,4.18,4.18s4.18-1.87,4.18-4.18s-1.87-4.18-4.18-4.18
											S179.03,331.42,179.03,333.73z"/>
										<path class="st8" d="M198.69,330.9c0.25,0,0.5,0.03,0.74,0.09v4.34c0,0.65-0.02,1.27-0.16,1.88
											c-0.17,0.03-0.4,0.05-0.58,0.05c-1.76,0-3.18-1.42-3.18-3.18C195.51,332.32,196.93,330.9,198.69,330.9z"/>
									</g>
									<polygon class="st25" points="192.39,325.86 192.05,331.59 194.78,329.92 									"/>
								</g>
							</g>
							<path class="st26" d="M246.04,313.5h-30.07c-2.99,0-5.41-2.42-5.41-5.41l0,0c0-2.99,2.42-5.41,5.41-5.41h30.07
								c2.99,0,5.41,2.42,5.41,5.41l0,0C251.44,311.08,249.02,313.5,246.04,313.5z"/>
						</g>
						<path class="st26" d="M248.28,373.71H139.4c-5.16,0-9.35-4.18-9.35-9.35v-58.52c0-5.16,4.18-9.35,9.35-9.35h108.87
							c5.16,0,9.35,4.18,9.35,9.35v58.52C257.62,369.52,253.44,373.71,248.28,373.71z"/>
					</g>
					<g>
						<g>
							<path d="M197.43,382.52c-0.02,1.4-0.88,2.7-2.21,3.18c-1.36,0.49-2.9,0.07-3.81-1.05c-0.88-1.09-0.98-2.66-0.27-3.86
								c0.71-1.19,2.14-1.85,3.51-1.59C196.26,379.49,197.41,380.9,197.43,382.52c0.01,0.8,1.26,0.81,1.25,0
								c-0.03-1.94-1.22-3.66-3.03-4.35c-1.8-0.68-3.94-0.11-5.16,1.38c-1.23,1.5-1.43,3.66-0.43,5.34c1,1.68,2.96,2.52,4.86,2.18
								c2.17-0.39,3.72-2.37,3.75-4.55C198.69,381.72,197.44,381.72,197.43,382.52z"/>
						</g>
					</g>
				</g>
				<g>
					<g>
						<g>
							<path class="st15" d="M342.46,255.38H234.53c-4.34,0-7.86-3.52-7.86-7.86v-69.46c0-4.34,3.52-7.86,7.86-7.86h107.93
								c4.34,0,7.86,3.52,7.86,7.86v69.46C350.32,251.87,346.8,255.38,342.46,255.38z"/>
							<path class="st27" d="M334.27,240.09h-91.56c-4.34,0-7.86-3.52-7.86-7.86v-49.21c0-4.34,3.52-7.86,7.86-7.86h91.56
								c4.34,0,7.86,3.52,7.86,7.86v49.21C342.13,236.57,338.61,240.09,334.27,240.09z"/>
							<g>
								<path class="st28" d="M263.03,240.09h49.74c-5.02-6.8-14.28-11.36-24.87-11.36C277.31,228.72,268.05,233.29,263.03,240.09z"
									/>
								<g>
									<ellipse class="st29" cx="288.53" cy="230.07" rx="8.15" ry="4.75"/>
									<path class="st17" d="M273.35,207.35c0,3.32,2.71,6.01,6.06,6.01c3.35,0,6.06-2.69,6.06-6.01c0-3.32-2.71-6.01-6.06-6.01
										C276.06,201.34,273.35,204.03,273.35,207.35z"/>
									<path class="st17" d="M298.56,189.79h-7.17c-4.76,0-8.66,4.44-8.66,9.86v11.11c0,0.31,0.02,0.62,0.04,0.93
										c-0.08,0.33-0.12,0.67-0.12,1.02v6.76v0.38v6.76c0,2.45,2.01,4.46,4.46,4.46h2.84c2.45,0,4.46-2.01,4.46-4.46v-5.99h4.14
										c4.76,0,8.66-4.44,8.66-9.86v-11.11C307.22,194.22,303.32,189.79,298.56,189.79z"/>
									<g>
										<g>
											<path d="M282.12,204.64c0,0,7.03-2.33,9.16-6.87c2.13-4.53,1.6-5.51,1.6-5.51s3.96,5.42,10.22,6.76
												c5.17,1.1,4.96,0.34,5.47-0.87c0.47-1.1,0.78-8.76-7.07-13.47c-7.85-4.71-16.28-4.24-22.1,1.62
												c-5.82,5.87-5.11,15.11-3.15,17.42C278.21,206.04,280.79,207.33,282.12,204.64z"/>
										</g>
										<g>
											<path class="st26" d="M260.89,177.76c0,0-3.04,0.43-3.47,5.2c-0.43,4.77-3.47,10.55-10.12,12
												c-6.65,1.45-22.55,1.3-23.28-15.04c-0.72-16.34,17.64-19.88,23.42-14.02c4.09,4.15,5.35,4.48,7.81-0.29
												c2.46-4.77,10.46-8.81,18.1-1.8c7.64,7.01,2.14,14.81-1.61,15.97C267.98,180.94,263.48,175.66,260.89,177.76z"/>
											<circle class="st28" cx="279.79" cy="180.2" r="3.08"/>
										</g>
									</g>
									<g>
										<path class="st18" d="M273.7,207.35c0,3.13,2.55,5.66,5.71,5.66c3.15,0,5.71-2.53,5.71-5.66c0-3.13-2.55-5.66-5.71-5.66
											C276.25,201.69,273.7,204.22,273.7,207.35z"/>
										<path class="st23" d="M282.49,208.09c0,0,0.25-3.84-3.7-3.42"/>
									</g>
									<g>
										<g>
											<path class="st30" d="M292.88,203.28c0,0.89,0.72,1.62,1.62,1.62s1.62-0.72,1.62-1.62c0-0.89-0.72-1.62-1.62-1.62
												S292.88,202.39,292.88,203.28z"/>
											<path class="st30" d="M303.46,203.04c0,0.76,0.62,1.38,1.38,1.38c0.76,0,1.38-0.62,1.38-1.38c0-0.76-0.62-1.38-1.38-1.38
												C304.07,201.66,303.46,202.28,303.46,203.04z"/>
										</g>
										<path class="st31" d="M301.91,209.65c0,0-0.81,2.37-2.53,2.53c-1.72,0.16-3.06-1.74-3.15-3.22L301.91,209.65z"/>
										<g>
											<path class="st8" d="M287.26,209.22c0,2.22,1.8,4.02,4.02,4.02s4.02-1.8,4.02-4.02c0-2.22-1.8-4.02-4.02-4.02
												S287.26,207,287.26,209.22z"/>
											<path class="st8" d="M306.14,206.5c0.24,0,0.48,0.03,0.71,0.09v4.16c0,0.62-0.02,1.22-0.15,1.81
												c-0.17,0.03-0.38,0.05-0.56,0.05c-1.69,0-3.06-1.37-3.06-3.06C303.09,207.87,304.46,206.5,306.14,206.5z"/>
										</g>
										<polygon class="st25" points="300.1,201.66 299.77,207.16 302.39,205.56 										"/>
									</g>
								</g>
							</g>
						</g>
						<g>
							<g>
								<path d="M291.42,247.5c-0.02,1.13-0.71,2.19-1.79,2.58c-1.11,0.4-2.37,0.06-3.11-0.86c-0.71-0.88-0.79-2.16-0.21-3.13
									c0.58-0.96,1.73-1.5,2.84-1.3C290.46,245.04,291.4,246.18,291.42,247.5c0.01,0.8,1.26,0.81,1.25,0
									c-0.02-1.68-1.05-3.16-2.62-3.75c-1.54-0.59-3.39-0.09-4.44,1.19c-1.06,1.3-1.24,3.16-0.38,4.61
									c0.87,1.45,2.55,2.17,4.2,1.88c1.87-0.34,3.2-2.05,3.23-3.92C292.68,246.7,291.43,246.7,291.42,247.5z"/>
							</g>
						</g>
					</g>
				</g>
				<g>
					<g>
						<path class="st15" d="M201.96,217.75H94.03c-4.34,0-7.86-3.52-7.86-7.86v-69.46c0-4.34,3.52-7.86,7.86-7.86h107.93
							c4.34,0,7.86,3.52,7.86,7.86v69.46C209.82,214.23,206.3,217.75,201.96,217.75z"/>
						<g>
							<g>
								<path d="M150.92,209.87c-0.02,1.13-0.71,2.19-1.79,2.58c-1.11,0.4-2.37,0.06-3.11-0.86c-0.71-0.88-0.79-2.16-0.21-3.13
									c0.58-0.96,1.73-1.5,2.84-1.3C149.96,207.4,150.9,208.54,150.92,209.87c0.01,0.8,1.26,0.81,1.25,0
									c-0.02-1.68-1.05-3.16-2.62-3.75c-1.54-0.59-3.39-0.09-4.44,1.19c-1.06,1.3-1.24,3.16-0.38,4.61
									c0.87,1.45,2.55,2.17,4.2,1.88c1.87-0.34,3.2-2.05,3.23-3.92C152.18,209.06,150.93,209.06,150.92,209.87z"/>
							</g>
						</g>
					</g>
					<g>
						<g>
							<path class="st0" d="M193.78,202.45h-91.56c-4.34,0-7.86-3.52-7.86-7.86v-49.21c0-4.34,3.52-7.86,7.86-7.86h91.56
								c4.34,0,7.86,3.52,7.86,7.86v49.21C201.64,198.93,198.12,202.45,193.78,202.45z"/>
							<g>
								<g>
									<g>
										<defs>
											<path id="SVGID_3_" d="M193.78,202.45h-91.56c-4.34,0-7.86-3.52-7.86-7.86v-49.21c0-4.34,3.52-7.86,7.86-7.86h91.56
												c4.34,0,7.86,3.52,7.86,7.86v49.21C201.64,198.93,198.12,202.45,193.78,202.45z"/>
										</defs>
										<clipPath id="SVGID_4_">
											<use xlink:href="#SVGID_3_"  style="overflow:visible;"/>
										</clipPath>
										<g class="st32">
											<g>
												<path class="st17" d="M132.77,185.22c-20.09,0-36.38,20.49-36.38,45.76h72.76
													C169.15,205.71,152.86,185.22,132.77,185.22z"/>
												<g>
													<path class="st12" d="M121.4,196.24c0,1.43-1.16,2.6-2.6,2.6s-2.6-1.16-2.6-2.6c0-1.43,1.16-2.6,2.6-2.6
														S121.4,194.81,121.4,196.24z"/>
													<circle class="st12" cx="131.71" cy="205.94" r="2.89"/>
													<path class="st12" d="M145.39,196.24c0,1.43-1.16,2.6-2.6,2.6c-1.43,0-2.6-1.16-2.6-2.6c0-1.43,1.16-2.6,2.6-2.6
														C144.23,193.64,145.39,194.81,145.39,196.24z"/>
													<circle class="st12" cx="155.44" cy="202.95" r="2.24"/>
													<path class="st12" d="M112.45,207.46c0,1.49-1.21,2.71-2.71,2.71s-2.71-1.21-2.71-2.71s1.21-2.71,2.71-2.71
														S112.45,205.96,112.45,207.46z"/>
													<circle class="st12" cx="121.33" cy="215.29" r="2.89"/>
													<circle class="st12" cx="148.06" cy="214.78" r="2.38"/>
													<path class="st12" d="M162.3,219.47c0,1.28-1.03,2.31-2.31,2.31c-1.28,0-2.31-1.03-2.31-2.31
														c0-1.28,1.03-2.31,2.31-2.31C161.26,217.16,162.3,218.2,162.3,219.47z"/>
													<path class="st12" d="M109.34,220.62c0,1.35-1.1,2.45-2.45,2.45c-1.35,0-2.45-1.1-2.45-2.45c0-1.35,1.1-2.45,2.45-2.45
														C108.24,218.17,109.34,219.27,109.34,220.62z"/>
													<path class="st12" d="M137.67,223.08c0,1.35-1.1,2.45-2.45,2.45c-1.35,0-2.45-1.1-2.45-2.45c0-1.35,1.1-2.45,2.45-2.45
														C136.57,220.62,137.67,221.72,137.67,223.08z"/>
												</g>
											</g>
											<g>
												<path class="st1" d="M171.96,207.22l0.72-2.44c0,0,0.07-0.65-0.86-1.01c-0.94-0.36-15.25-5.87-15.25-5.87
													s-1.22-0.72-1.56,0.16c-0.34,0.88-2.71,4.77-2.71,4.77s-0.68,0.99,0.15,1.44c0.83,0.46,13.8,5.34,13.8,5.34l3.31,1.37
													c0,0,1.05,0.38,1.22-0.13C170.94,210.37,171.96,207.22,171.96,207.22z"/>
												<path class="st18" d="M175.95,190.09c0,0,1.29-6.66,0.23-7.91c-1.06-1.25-2.07,0.09-2.59,1.77
													c-0.53,1.68-1.36,4.87-1.36,4.87l-3.34-6.71c0,0,7.42-5.41,7.7-6.4s0.34-1.65-0.17-1.66c-0.51-0.01-2.1,0.42-2.1,0.42
													s2.51-2.42,1.73-3.28c-0.78-0.86-3.49,1.11-3.49,1.11s0.97-3.67,0.53-4.38c-0.45-0.71-3.49,3.47-4.32,5.03
													c-0.84,1.56-2.34,4.14-2.34,4.14s-1,0.78-0.96,1.2c0.04,0.42-1.22,1.35-1.42,1.52c-0.19,0.17-1.71,3.34-3.14,6.56
													c-1.43,3.23-3.55,7.61-3.55,7.61l-1.04,1.99c0,0-1.11,1.62,1.2,2.28c2.31,0.66,11.42,4.4,11.42,4.4l2.89,1.11
													c0,0,0.87,1.22,1.57-1.58C174.1,199.4,175.95,190.09,175.95,190.09z"/>
												<g>
													<path class="st26" d="M170.25,212.37c5.02-14.01,7.12-28.68,5.93-30.19c-1.65-2.11-2.68,1.49-3.95,6.64l-3.34-6.71
														c0,0,8.01-5.45,8.01-7.62c0-2.17-12.56,3.97-13.66,6.25c-0.71,1.47-4.97,13.47-12.15,23.91"/>
													<path class="st26" d="M173.52,174.67c0,0,3.31-2.05,2.53-3.47c-0.77-1.42-10.8,5.66-10.55,7.53"/>
													<path class="st26" d="M172.21,172.52c0,0,2.06-4.08,0.88-4.59c-1.18-0.5-5.39,6.29-5.88,8.37"/>
												</g>
												<g>
													<g>
														<line class="st26" x1="172.86" y1="204.17" x2="155.49" y2="197.49"/>
														<line class="st26" x1="170.58" y1="211.42" x2="151.78" y2="203.62"/>
													</g>
													<g>
														<line class="st26" x1="170.61" y1="203.3" x2="167.93" y2="210.32"/>
														<line class="st26" x1="167.28" y1="202.02" x2="164.6" y2="208.94"/>
														<line class="st26" x1="164.16" y1="200.69" x2="161.55" y2="207.52"/>
														<line class="st26" x1="160.71" y1="199.42" x2="158.33" y2="206.23"/>
														<line class="st26" x1="157.8" y1="198.36" x2="154.96" y2="204.91"/>
													</g>
												</g>
											</g>
										</g>
									</g>
									<g>
										<path class="st33" d="M118.45,164.73c0,3.02,2.47,5.46,5.51,5.46s5.51-2.45,5.51-5.46c0-3.02-2.47-5.46-5.51-5.46
											S118.45,161.71,118.45,164.73z"/>
										<path class="st34" d="M140.64,186.67c0,2.53-3.52,4.59-7.87,4.59c-4.35,0-7.87-2.05-7.87-4.59c0-2.53,3.52-4.59,7.87-4.59
											C137.11,182.08,140.64,184.14,140.64,186.67z"/>
										<path class="st17" d="M142.44,147.78h-6.92c-4.6,0-8.36,4.29-8.36,9.52v10.73c0,0.3,0.02,0.6,0.04,0.9
											c-0.07,0.32-0.12,0.64-0.12,0.98v6.53v0.36v6.53c0,2.37,1.94,4.31,4.31,4.31h2.74c2.37,0,4.31-1.94,4.31-4.31v-5.78h4
											c4.6,0,8.36-4.28,8.36-9.52V157.3C150.81,152.06,147.04,147.78,142.44,147.78z"/>
										<g>
											<g>
												<path class="st35" d="M136.96,160.8c0,0.86,0.7,1.56,1.56,1.56c0.86,0,1.56-0.7,1.56-1.56c0-0.86-0.7-1.56-1.56-1.56
													C137.66,159.24,136.96,159.94,136.96,160.8z"/>
												<path class="st35" d="M147.17,160.57c0,0.74,0.6,1.33,1.33,1.33c0.74,0,1.33-0.6,1.33-1.33c0-0.74-0.6-1.33-1.33-1.33
													C147.77,159.24,147.17,159.84,147.17,160.57z"/>
											</g>
											<g>
												<path class="st36" d="M145.68,166.95c0,0-0.78,2.28-2.44,2.44c-1.66,0.16-2.96-1.68-3.05-3.11L145.68,166.95z"/>
												<g>
													<path class="st35" d="M145.15,166.81c-0.02,0.06-0.04,0.11-0.07,0.17c0.07-0.17-0.01,0.03-0.04,0.09
														c-0.04,0.09-0.09,0.18-0.13,0.27c-0.24,0.44-0.44,0.75-0.79,1.07c-0.34,0.31-0.78,0.51-1.3,0.43
														c-0.51-0.08-0.99-0.43-1.33-0.85c-0.2-0.24-0.37-0.53-0.49-0.8c-0.13-0.29-0.21-0.64-0.23-0.9
														c-0.19,0.19-0.37,0.37-0.56,0.56c1.6,0.2,3.2,0.39,4.8,0.59c0.23,0.03,0.45,0.06,0.68,0.08
														c0.3,0.04,0.56-0.28,0.56-0.56c0-0.33-0.26-0.52-0.56-0.56c-1.6-0.2-3.2-0.39-4.8-0.59c-0.23-0.03-0.45-0.06-0.68-0.08
														c-0.29-0.03-0.58,0.28-0.56,0.56c0.11,1.51,1.12,3.09,2.62,3.56c1.46,0.46,2.73-0.47,3.46-1.67
														c0.2-0.34,0.38-0.7,0.51-1.07c0.1-0.28-0.11-0.61-0.39-0.69C145.53,166.33,145.24,166.52,145.15,166.81z"/>
												</g>
											</g>
											<g>
												<circle class="st8" cx="135.42" cy="166.54" r="3.88"/>
												<path class="st8" d="M149.77,163.91c0.24,0,0.46,0.03,0.68,0.08v4.02c0,0.6-0.02,1.18-0.14,1.75
													c-0.16,0.03-0.37,0.05-0.54,0.05c-1.63,0-2.95-1.32-2.95-2.95C146.82,165.23,148.14,163.91,149.77,163.91z"/>
											</g>
											<polygon class="st6" points="143.93,159.24 143.61,164.55 146.15,163.01 											"/>
										</g>
										<path d="M129.05,162.66l1.2-6.51c0,0,6.74,2.15,11.89-1.97c5.15-4.13-3.3-5.79-1.94-2.71c1.36,3.07,6.09,4.34,11.93,3.69
											c8.7-0.96,8.92-11.47,3.92-14.55c-5-3.09-10.65,0.54-10.65,0.54s2.6-5.21-3.91-6.95c-5.35-1.43-9.36,3.1-9.95,5.1
											c0,0-8.82,0.87-12.74,6.41c-3.92,5.54-4.23,12.16-0.36,18.2c3.87,6.04,8.49,9.29,8.49,9.29S127.69,165.39,129.05,162.66z"
											/>
										<g>
											<path class="st18" d="M118.45,164.73c0,3.02,2.47,5.46,5.51,5.46s5.51-2.45,5.51-5.46c0-3.02-2.47-5.46-5.51-5.46
												S118.45,161.71,118.45,164.73z"/>
											<g>
												<g>
													<path class="st37" d="M127.62,165.45c0.03-0.48-0.05-0.99-0.18-1.45c-0.27-0.94-0.87-1.79-1.77-2.2
														c-0.72-0.33-1.52-0.42-2.31-0.33c-0.36,0.04-0.71,0.29-0.69,0.69c0.02,0.34,0.3,0.73,0.69,0.69
														c0.33-0.03,0.66-0.04,0.99-0.01c0.03,0,0.07,0.01,0.1,0.01c-0.21-0.01-0.08-0.01-0.03,0c0.06,0.01,0.12,0.02,0.19,0.04
														c0.13,0.03,0.25,0.07,0.38,0.11c0.17,0.06-0.14-0.07,0.02,0.01c0.05,0.02,0.1,0.05,0.14,0.07
														c0.1,0.05,0.19,0.14,0.29,0.18c-0.14-0.06-0.11-0.09-0.06-0.04c0.02,0.02,0.04,0.03,0.06,0.05
														c0.04,0.03,0.07,0.06,0.11,0.1c0.07,0.07,0.13,0.16,0.21,0.23c-0.16-0.16-0.05-0.07-0.01-0.01
														c0.03,0.04,0.05,0.07,0.07,0.11c0.05,0.08,0.1,0.17,0.14,0.25c0.02,0.04,0.04,0.09,0.06,0.13
														c0.04,0.07-0.07-0.18-0.03-0.08c0.01,0.02,0.02,0.04,0.02,0.06c0.03,0.09,0.06,0.18,0.09,0.27
														c0.05,0.15,0.08,0.31,0.11,0.46c0.01,0.03,0.01,0.07,0.02,0.1c0.02,0.14-0.02-0.2-0.01-0.07
														c0.01,0.07,0.01,0.13,0.02,0.2c0.01,0.14,0.02,0.29,0.01,0.43c-0.02,0.36,0.33,0.7,0.69,0.69
														C127.33,166.12,127.6,165.84,127.62,165.45L127.62,165.45z"/>
												</g>
											</g>
										</g>
									</g>
								</g>
							</g>
							<path class="st38" d="M193.78,202.45h-91.56c-4.34,0-7.86-3.52-7.86-7.86v-49.21c0-4.34,3.52-7.86,7.86-7.86h91.56
								c4.34,0,7.86,3.52,7.86,7.86v49.21C201.64,198.93,198.12,202.45,193.78,202.45z"/>
						</g>
						<path class="st26" d="M193.78,202.45h-91.56c-4.34,0-7.86-3.52-7.86-7.86v-49.21c0-4.34,3.52-7.86,7.86-7.86h91.56
							c4.34,0,7.86,3.52,7.86,7.86v49.21C201.64,198.93,198.12,202.45,193.78,202.45z"/>
					</g>
				</g>
				<g>
					<g>
						<g>
							<path class="st15" d="M410.04,363.89H301.11c-4.38,0-7.93-3.55-7.93-7.93v-70.11c0-4.38,3.55-7.93,7.93-7.93h108.93
								c4.38,0,7.93,3.55,7.93,7.93v70.11C417.97,360.34,414.42,363.89,410.04,363.89z"/>
							<g>
								<g>
									<path d="M358.53,355.93c-0.02,1.14-0.72,2.21-1.81,2.61c-1.12,0.4-2.39,0.06-3.14-0.87c-0.72-0.89-0.8-2.18-0.21-3.16
										c0.58-0.97,1.75-1.52,2.87-1.31C357.56,353.44,358.51,354.6,358.53,355.93c0.01,0.8,1.26,0.81,1.25,0
										c-0.02-1.69-1.06-3.18-2.64-3.78c-1.56-0.59-3.42-0.09-4.47,1.2c-1.07,1.31-1.25,3.18-0.38,4.64
										c0.87,1.46,2.57,2.19,4.24,1.89c1.89-0.34,3.23-2.07,3.26-3.95C359.79,355.13,358.54,355.13,358.53,355.93z"/>
								</g>
							</g>
						</g>
						<g>
							<path class="st0" d="M401.78,348.45h-92.41c-4.38,0-7.93-3.55-7.93-7.93v-49.67c0-4.38,3.55-7.93,7.93-7.93h92.41
								c4.38,0,7.93,3.55,7.93,7.93v49.67C409.71,344.9,406.16,348.45,401.78,348.45z"/>
							<g>
								<g>
									<g>
										<defs>
											<path id="SVGID_5_" d="M401.78,348.45h-92.41c-4.38,0-7.93-3.55-7.93-7.93v-49.67c0-4.38,3.55-7.93,7.93-7.93h92.41
												c4.38,0,7.93,3.55,7.93,7.93v49.67C409.71,344.9,406.16,348.45,401.78,348.45z"/>
										</defs>
										<clipPath id="SVGID_6_">
											<use xlink:href="#SVGID_5_"  style="overflow:visible;"/>
										</clipPath>
										<g class="st39">
											<path class="st40" d="M290.68,346.89c0,0,16.35-15.61,33.75-18.84c17.4-3.22,52.25-2.9,71.11,22.03
												c18.86,24.94-27.49,47-28.77,47.16c-1.28,0.16-76.57-12.44-79.45-14.61C284.45,380.46,273.58,367.51,290.68,346.89z"/>
											<g>
												<path class="st40" d="M361.69,334.03c0,0,28.19,56.64,21.88,67.46c-6.31,10.82-53.02,21.14-76.33,9.32
													c-27.26-13.82,8.6-71.22,17.07-84.45L361.69,334.03z"/>
												<path class="st18" d="M317.98,346.89c0,3.56,2.89,6.45,6.45,6.45s6.45-2.89,6.45-6.45s-2.89-6.45-6.45-6.45
													S317.98,343.32,317.98,346.89z"/>
											</g>
										</g>
									</g>
									<path class="st26" d="M401.78,348.45h-92.41c-4.38,0-7.93-3.55-7.93-7.93v-49.67c0-4.38,3.55-7.93,7.93-7.93h92.41
										c4.38,0,7.93,3.55,7.93,7.93v49.67C409.71,344.9,406.16,348.45,401.78,348.45z"/>
									<g>
										
											<ellipse transform="matrix(0.102 -0.9948 0.9948 0.102 -18.7823 636.23)" class="st41" cx="343" cy="328.52" rx="14.72" ry="22.76"/>
										<g>
											<g>
												<path class="st42" d="M330.99,306.11c0,3.26,2.67,5.91,5.96,5.91c3.29,0,5.96-2.65,5.96-5.91
													c0-3.26-2.67-5.91-5.96-5.91C333.66,300.2,330.99,302.85,330.99,306.11z"/>
												<path class="st43" d="M356.95,287.77h-7.49c-4.98,0-9.05,4.64-9.05,10.3v11.6c0,0.33,0.02,0.65,0.04,0.97
													c-0.08,0.34-0.13,0.7-0.13,1.06v7.06v0.39v7.06c0,2.56,2.1,4.66,4.66,4.66h2.97c2.56,0,4.66-2.1,4.66-4.66v-6.25h4.33
													c4.98,0,9.05-4.64,9.05-10.3v-11.6C366,292.4,361.93,287.77,356.95,287.77z"/>
												<g>
													<g>
														<path class="st30" d="M351.02,301.86c0,0.93,0.76,1.69,1.69,1.69c0.93,0,1.69-0.76,1.69-1.69
															c0-0.93-0.76-1.69-1.69-1.69C351.78,300.17,351.02,300.93,351.02,301.86z"/>
														<path class="st30" d="M362.07,301.61c0,0.8,0.64,1.44,1.44,1.44s1.44-0.65,1.44-1.44s-0.64-1.44-1.44-1.44
															S362.07,300.82,362.07,301.61z"/>
													</g>
													<g>
														<path class="st44" d="M360.46,308.52c0,0-0.85,2.47-2.64,2.64c-1.79,0.17-3.2-1.82-3.3-3.37L360.46,308.52z"/>
														<g>
															<path class="st30" d="M359.95,308.38c-0.02,0.06-0.05,0.12-0.07,0.18c0.06-0.16-0.03,0.07-0.05,0.12
																c-0.05,0.1-0.09,0.19-0.14,0.29c-0.24,0.45-0.5,0.83-0.87,1.17c-0.39,0.36-0.91,0.57-1.46,0.49
																c-0.6-0.09-1.12-0.48-1.5-0.94c-0.44-0.52-0.76-1.21-0.81-1.9c-0.17,0.17-0.35,0.35-0.52,0.52
																c1.73,0.21,3.47,0.42,5.2,0.64c0.25,0.03,0.49,0.06,0.74,0.09c0.28,0.03,0.52-0.27,0.52-0.52
																c0-0.31-0.24-0.49-0.52-0.52c-1.73-0.21-3.47-0.42-5.2-0.64c-0.25-0.03-0.49-0.06-0.74-0.09
																c-0.27-0.03-0.54,0.27-0.52,0.52c0.12,1.6,1.19,3.28,2.77,3.78c1.55,0.48,2.88-0.5,3.65-1.77
																c0.22-0.36,0.41-0.74,0.54-1.14C361.19,308.02,360.17,307.74,359.95,308.38z"/>
														</g>
													</g>
													<g>
														<path class="st8" d="M345.16,308.07c0,2.32,1.88,4.19,4.19,4.19c2.32,0,4.19-1.88,4.19-4.19
															c0-2.32-1.88-4.19-4.19-4.19C347.04,303.87,345.16,305.75,345.16,308.07z"/>
														<path class="st8" d="M364.88,305.22c0.26,0,0.5,0.03,0.74,0.09v4.35c0,0.65-0.02,1.28-0.16,1.89
															c-0.18,0.03-0.4,0.05-0.58,0.05c-1.76,0-3.19-1.43-3.19-3.19C361.69,306.65,363.12,305.22,364.88,305.22z"/>
													</g>
													<polygon class="st25" points="358.56,300.17 358.22,305.92 360.96,304.25 													"/>
												</g>
												<path d="M342.38,305.92l1.38-9.09c0,0,25.15,3.15,33.3-9.06c8.15-12.22-0.41-17.05-4.56-16.36
													c-4.15,0.69-8.99,6.63-8.99,6.63s3.86-5.25,0-6.08c-3.86-0.83-8.12,3.18-10.34,7.32c0,0-16.58-1.55-22.18,8.48
													c-5.6,10.03-1.06,17.15,9.19,27.51l0.68-5.8L342.38,305.92z"/>
												<g>
													<path class="st18" d="M330.99,306.11c0,3.26,2.67,5.91,5.96,5.91c3.29,0,5.96-2.65,5.96-5.91
														c0-3.26-2.67-5.91-5.96-5.91C333.66,300.2,330.99,302.85,330.99,306.11z"/>
													<g>
														<g>
															<path class="st45" d="M340.82,306.89c0.03-0.51-0.05-1.05-0.19-1.54c-0.28-0.99-0.91-1.89-1.87-2.33
																c-0.77-0.35-1.62-0.43-2.45-0.35c-0.34,0.03-0.66,0.27-0.65,0.65c0.01,0.32,0.29,0.68,0.65,0.65
																c0.36-0.04,0.71-0.05,1.07-0.01c0.02,0,0.1,0,0.11,0.01c-0.02-0.03-0.14-0.02,0,0c0.07,0.01,0.14,0.03,0.2,0.04
																c0.14,0.03,0.27,0.08,0.41,0.12c0.17,0.06-0.11-0.06,0.05,0.02c0.05,0.03,0.1,0.05,0.16,0.08
																c0.04,0.02,0.29,0.21,0.31,0.2c-0.02,0.01-0.13-0.11-0.04-0.03c0.02,0.02,0.04,0.03,0.06,0.05
																c0.04,0.03,0.08,0.07,0.12,0.11c0.07,0.07,0.14,0.19,0.22,0.25c-0.1-0.07-0.08-0.11-0.03-0.04
																c0.01,0.02,0.02,0.03,0.03,0.05c0.03,0.04,0.05,0.08,0.08,0.12c0.06,0.09,0.11,0.18,0.15,0.28
																c0.02,0.05,0.04,0.09,0.07,0.14c0.04,0.07-0.07-0.17-0.03-0.07c0.01,0.02,0.02,0.04,0.03,0.06
																c0.04,0.1,0.07,0.19,0.1,0.29c0.05,0.16,0.09,0.33,0.12,0.5c0.01,0.04,0.01,0.07,0.02,0.11
																c0.02,0.14-0.02-0.19-0.01-0.05c0.01,0.07,0.02,0.14,0.02,0.21c0.01,0.16,0.02,0.31,0.01,0.47
																c-0.02,0.34,0.31,0.66,0.65,0.65C340.54,307.52,340.8,307.25,340.82,306.89L340.82,306.89z"/>
														</g>
													</g>
												</g>
											</g>
											<g>
												<path class="st46" d="M353.17,279.28c0,0-16.57,17.12-23.44,22.33c0,0-8.93-19.77-3.86-25.29
													C329.93,271.9,349.77,274.49,353.17,279.28z"/>
												<line class="st47" x1="347.69" y1="276.06" x2="327.49" y2="295.97"/>
											</g>
										</g>
										<g>
											<path class="st1" d="M357.78,321.84l2.7,10.03l-20.45,6.48l-1.06-4.19l-7.56-4.49l3.13-8.46l8.95,6.96l0.59,0.49
												c0,0,0.33,0.55,1.98-0.36C347.72,327.38,357.78,321.84,357.78,321.84z"/>
											<g>
												<polyline class="st47" points="358.57,321.41 339.06,332.15 338.94,334.7 												"/>
												<line class="st47" x1="334.06" y1="321.19" x2="344.69" y2="329.05"/>
											</g>
										</g>
										<g>
											<g>
												<path class="st47" d="M334.06,332.87c0,0-13.8,9.15-23.22,5.48"/>
												<circle class="st47" cx="333.72" cy="332.78" r="1.54"/>
											</g>
											<g>
												<path class="st47" d="M351.35,336.28c0,0.88,0.71,1.59,1.59,1.59c0.88,0,1.59-0.71,1.59-1.59s-0.71-1.59-1.59-1.59
													C352.06,334.7,351.35,335.41,351.35,336.28z"/>
												<path class="st47" d="M352.94,336.28c0,0,5.63,16.25,15.46,20.97"/>
											</g>
										</g>
									</g>
								</g>
							</g>
						</g>
					</g>
				</g>
				<g>
					<g>
						<path class="st15" d="M580.33,423.8H451.99c-5.16,0-9.35-4.18-9.35-9.35v-82.6c0-5.16,4.18-9.35,9.35-9.35h128.34
							c5.16,0,9.35,4.18,9.35,9.35v82.6C589.68,419.61,585.49,423.8,580.33,423.8z"/>
						<g>
							<g>
								<path d="M519.76,414.43c-0.02,1.4-0.88,2.7-2.21,3.18c-1.36,0.49-2.9,0.07-3.81-1.05c-0.88-1.09-0.98-2.66-0.26-3.86
									c0.71-1.19,2.14-1.85,3.51-1.59C518.58,411.39,519.73,412.8,519.76,414.43c0.01,0.8,1.26,0.81,1.25,0
									c-0.03-1.94-1.22-3.66-3.03-4.35c-1.8-0.68-3.94-0.11-5.16,1.38c-1.23,1.5-1.43,3.66-0.43,5.34c1,1.68,2.96,2.52,4.86,2.18
									c2.17-0.39,3.72-2.37,3.75-4.55C521.02,413.62,519.77,413.62,519.76,414.43z"/>
							</g>
						</g>
					</g>
					<g>
						<path class="st27" d="M570.6,405.61H461.73c-5.16,0-9.35-4.18-9.35-9.35v-58.52c0-5.16,4.18-9.35,9.35-9.35H570.6
							c5.16,0,9.35,4.18,9.35,9.35v58.52C579.95,401.42,575.76,405.61,570.6,405.61z"/>
						<g>
							<g>
								<g>
									<path d="M513.45,372.54c0,0,19.18,9.19,26.36-4.26c7.19-13.44-4.27-29.95-13.59-32.35
										C516.92,333.53,509.58,359.89,513.45,372.54z"/>
									<path d="M505.18,373.6c0,0-8.36,6.26-21.14,1.46c-12.78-4.79-4.93-28.22,0-35.41c4.93-7.19,15.98-11.58,20.9-9.32
										S513.92,358.92,505.18,373.6z"/>
									
										<ellipse transform="matrix(0.5942 -0.8043 0.8043 0.5942 -69.1405 519.1534)" cx="479.93" cy="328.1" rx="9.18" ry="9.18"/>
								</g>
								<g>
									<path class="st17" d="M533.73,354.25c0,0-3.08-7.04-5.68-6.6c-2.6,0.44-1.87,5.01-1.51,7.49c0.36,2.48,1.56,5.63-1.17,8.54
										C522.64,366.59,536.13,362.24,533.73,354.25z"/>
									<g>
										<path class="st17" d="M519.67,334.62h-7.85c-5.22,0-9.49,4.86-9.49,10.8v12.17c0,0.34,0.02,0.68,0.05,1.02
											c-0.08,0.36-0.13,0.73-0.13,1.11v7.41v0.41v7.41c0,2.69,2.2,4.89,4.89,4.89h3.11c2.69,0,4.89-2.2,4.89-4.89v-6.56h4.54
											c5.22,0,9.49-4.86,9.49-10.8v-12.17C529.16,339.48,524.89,334.62,519.67,334.62z"/>
										<g>
											<path class="st8" d="M507.3,355.9c0,2.43,1.97,4.4,4.4,4.4c2.43,0,4.4-1.97,4.4-4.4c0-2.43-1.97-4.4-4.4-4.4
												C509.27,351.5,507.3,353.47,507.3,355.9z"/>
											<path class="st8" d="M527.98,352.92c0.27,0,0.53,0.03,0.78,0.09v4.56c0,0.68-0.03,1.34-0.16,1.98
												c-0.18,0.03-0.42,0.06-0.61,0.06c-1.85,0-3.35-1.5-3.35-3.35C524.63,354.42,526.13,352.92,527.98,352.92z"/>
										</g>
										<g>
											<g>
												<path class="st30" d="M513.45,349.39c0,0.98,0.79,1.77,1.77,1.77s1.77-0.79,1.77-1.77c0-0.98-0.79-1.77-1.77-1.77
													S513.45,348.42,513.45,349.39z"/>
												<path class="st30" d="M525.03,349.13c0,0.83,0.68,1.51,1.51,1.51c0.83,0,1.51-0.68,1.51-1.51
													c0-0.83-0.68-1.51-1.51-1.51C525.71,347.62,525.03,348.3,525.03,349.13z"/>
											</g>
											<g>
												<path class="st44" d="M523.61,357.27c0,0-0.89,2.59-2.77,2.77c-1.88,0.18-3.35-1.91-3.45-3.53L523.61,357.27z"/>
												<g>
													<path class="st30" d="M523.07,357.12c-0.02,0.07-0.05,0.13-0.07,0.19c0.07-0.17-0.03,0.07-0.06,0.12
														c-0.05,0.1-0.1,0.2-0.15,0.3c-0.25,0.48-0.52,0.87-0.91,1.23c-0.41,0.37-0.95,0.6-1.52,0.51
														c-0.63-0.1-1.17-0.51-1.57-0.98c-0.46-0.55-0.79-1.28-0.84-1.98c-0.19,0.19-0.37,0.37-0.56,0.56
														c1.82,0.22,3.63,0.44,5.45,0.67c0.26,0.03,0.52,0.06,0.77,0.09c0.3,0.04,0.56-0.28,0.56-0.56
														c0-0.33-0.26-0.52-0.56-0.56c-1.82-0.22-3.63-0.45-5.45-0.67c-0.26-0.03-0.52-0.06-0.77-0.09
														c-0.29-0.04-0.58,0.28-0.56,0.56c0.13,1.68,1.25,3.45,2.91,3.97c1.63,0.51,3.03-0.53,3.84-1.86
														c0.23-0.38,0.43-0.78,0.57-1.2C524.38,356.74,523.3,356.44,523.07,357.12z"/>
												</g>
											</g>
											<polygon class="st25" points="521.36,347.62 520.99,353.65 523.87,351.9 											"/>
										</g>
										<path d="M500.05,333C500.05,333,500.05,333,500.05,333c0.32-4.54,2.9-8.73,6.22-8.79c7.32-0.13,7.18,5.32,7.18,5.32
											c12.51-15.44,28.63-6.26,23.44,5.08c-5.19,11.33-25.26,9.57-25.26,9.57c-1.03,0.03-1.99-0.33-2.85-0.16
											c-2.38,0.48-4.04,3.41-4.75,7.14C502.24,360.42,495.29,340.19,500.05,333z"/>
										<g>
											<path d="M498.69,346.83c1.17,0,2.28,0.29,3.25,0.79v1.92c-0.91-0.67-2.03-1.08-3.25-1.08c-2.99,0-5.43,2.41-5.43,5.38
												c0,2.97,2.44,5.38,5.43,5.38c1.22,0,2.34-0.4,3.25-1.08v1.92c-0.97,0.5-2.08,0.79-3.25,0.79c-3.9,0-7.07-3.15-7.07-7.02
												C491.62,349.98,494.79,346.83,498.69,346.83z"/>
											<g>
												<path class="st18" d="M492.44,353.85c0,3.42,2.8,6.2,6.25,6.2c3.45,0,6.25-2.78,6.25-6.2s-2.8-6.2-6.25-6.2
													C495.24,347.65,492.44,350.43,492.44,353.85z"/>
												<g>
													<g>
														<path class="st45" d="M502.76,354.67c0.03-0.54-0.05-1.11-0.2-1.62c-0.29-1.04-0.96-1.99-1.96-2.45
															c-0.81-0.37-1.7-0.46-2.58-0.37c-0.36,0.04-0.71,0.29-0.69,0.69c0.02,0.34,0.3,0.73,0.69,0.69
															c0.37-0.04,0.75-0.05,1.12-0.01c0.02,0,0.11,0.02,0.12,0.01c-0.03,0.03-0.16-0.02,0,0c0.07,0.01,0.14,0.03,0.21,0.04
															c0.15,0.03,0.29,0.08,0.43,0.13c0.18,0.06-0.12-0.06,0.05,0.02c0.05,0.03,0.11,0.05,0.16,0.08
															c0.05,0.03,0.1,0.06,0.15,0.09c0.03,0.02,0.15,0.12,0.17,0.12c-0.04,0.01-0.14-0.11-0.05-0.04
															c0.02,0.02,0.04,0.04,0.06,0.05c0.04,0.04,0.08,0.07,0.12,0.11c0.08,0.08,0.15,0.2,0.24,0.26
															c-0.11-0.08-0.08-0.11-0.03-0.04c0.01,0.02,0.02,0.03,0.04,0.05c0.03,0.04,0.06,0.08,0.08,0.13
															c0.06,0.09,0.11,0.19,0.16,0.29c0.02,0.05,0.04,0.1,0.07,0.15c0.04,0.07-0.07-0.18-0.03-0.07
															c0.01,0.02,0.02,0.04,0.03,0.07c0.04,0.1,0.07,0.2,0.1,0.3c0.05,0.17,0.09,0.35,0.12,0.53
															c0.01,0.04,0.01,0.08,0.02,0.12c0.02,0.15-0.02-0.2-0.01-0.05c0.01,0.07,0.02,0.15,0.02,0.22
															c0.01,0.16,0.02,0.33,0.01,0.49c-0.02,0.36,0.33,0.7,0.69,0.69C502.46,355.34,502.74,355.05,502.76,354.67
															L502.76,354.67z"/>
													</g>
												</g>
											</g>
										</g>
									</g>
								</g>
							</g>
							<g>
								<defs>
									<path id="SVGID_7_" d="M570.6,405.61H461.73c-5.16,0-9.35-4.18-9.35-9.35v-58.52c0-5.16,4.18-9.35,9.35-9.35H570.6
										c5.16,0,9.35,4.18,9.35,9.35v58.52C579.95,401.42,575.76,405.61,570.6,405.61z"/>
								</defs>
								<clipPath id="SVGID_8_">
									<use xlink:href="#SVGID_7_"  style="overflow:visible;"/>
								</clipPath>
								<g class="st48">
									<g>
										<path class="st49" d="M457.18,437.63c4.82-37.68,37.62-65.32,59.76-57.3c17.62,6.38,25.34,41.7,27.93,57.3H457.18z"/>
										<path class="st50" d="M502.14,383.19h12.2c2.62,0,4.75-2.13,4.75-4.75v-1.25c0-2.62-2.13-4.75-4.75-4.75h-12.2
											c-2.62,0-4.75,2.13-4.75,4.75v1.25C497.39,381.07,499.52,383.19,502.14,383.19z"/>
										<g>
											<line class="st51" x1="516.94" y1="372.98" x2="516.94" y2="382.65"/>
											<line class="st51" x1="514.5" y1="372.43" x2="514.5" y2="383.19"/>
											<line class="st51" x1="511.93" y1="372.43" x2="511.93" y2="383.19"/>
											<line class="st51" x1="509.36" y1="372.43" x2="509.36" y2="383.19"/>
											<line class="st51" x1="506.79" y1="372.43" x2="506.79" y2="383.19"/>
											<line class="st51" x1="504.22" y1="372.43" x2="504.22" y2="383.19"/>
											<line class="st51" x1="501.66" y1="372.43" x2="501.66" y2="383.19"/>
											<line class="st51" x1="499.09" y1="373.28" x2="499.09" y2="382.35"/>
										</g>
									</g>
									<g>
										<g>
											<path class="st52" d="M473.08,349.99c1.15-0.77,2.32,4.01,2.9,7.18c-0.21-2.62-0.44-6.85,0.55-7.16
												c1.05-0.32,2.11,4.28,2.61,7.1c-0.21-2.61-0.46-7.02,0.47-7.1c1.19-0.1,2.08,3.95,2.59,7.1c-0.3-2.75-0.46-6.1,0.49-6.29
												c1.62-0.32,2.11,1.62,2.92,6.16c0.81,4.54,2.11,7.62,8.27,10.22c5.39,2.27,11.78,5.53,17.74,25.33l-17.42,0.82
												c-0.02-0.5-0.05-1-0.08-1.5c-1.21-18.49-11.6-17.84-16.53-21.57C472.68,366.56,470.86,351.48,473.08,349.99z"/>
											<path class="st49" d="M481.96,437.63c7.8-10.08,13.03-28.36,12.23-44.73l17.22-1.07c0.93,3.01,1.85,6.4,2.75,10.25
												c3.85,16.42,1.34,28.38-1.45,35.55H481.96z"/>
											<g>
												<path class="st50" d="M512.86,396.88h-18.59c0.01-1.69-0.03-3.37-0.14-5.03c-0.08-1.23-0.2-2.37-0.36-3.44l16.25-0.78
													C510.98,390.32,511.92,393.37,512.86,396.88z"/>
												<g>
													<line class="st51" x1="507.42" y1="387.76" x2="509.55" y2="396.88"/>
													<line class="st51" x1="504.02" y1="387.92" x2="505.18" y2="396.88"/>
													<line class="st51" x1="500.55" y1="387.92" x2="501.1" y2="396.88"/>
													<line class="st51" x1="497.39" y1="388.24" x2="497.7" y2="396.64"/>
												</g>
											</g>
										</g>
										<g>
											<path class="st17" d="M531.5,357.22c0.71-4.12-3.29-8.55-1.96-9.6c1.33-1.05,8.71,5.66,6.62,12.42
												c-2.09,6.76-9.69,7.96-7.02,18.08c0.95,3.59,3.01,8.49,5.58,13.79l-17.33,0.45c-1.13-12.15,0.07-21.05,1.46-23.97
												C520.49,364.95,530.8,361.35,531.5,357.22z"/>
											<path class="st49" d="M529.25,437.63c-3.32-9.44-9.31-27.38-11.02-38.47c-0.4-2.61-0.7-5.11-0.9-7.49l16.55-1.52
												c4.73,10.03,11.61,21.93,16.35,29.25c3.63,5.6,5.54,12.43,5.73,18.23H529.25z"/>
											<g>
												<path class="st28" d="M517.87,396.61c-0.41-3.14-0.67-6.1-0.81-8.85h15.71c1.2,2.66,2.58,5.51,4.07,8.4L517.87,396.61z"
													/>
												<g>
													<line class="st26" x1="530.54" y1="387.92" x2="532.87" y2="396.61"/>
													<line class="st26" x1="527.22" y1="387.92" x2="528.34" y2="396.36"/>
													<line class="st26" x1="524.19" y1="387.76" x2="524.62" y2="396.45"/>
													<line class="st26" x1="520.56" y1="387.76" x2="521.22" y2="396.53"/>
												</g>
											</g>
										</g>
									</g>
								</g>
							</g>
						</g>
						<path class="st26" d="M570.6,405.61H461.73c-5.16,0-9.35-4.18-9.35-9.35v-58.52c0-5.16,4.18-9.35,9.35-9.35H570.6
							c5.16,0,9.35,4.18,9.35,9.35v58.52C579.95,401.42,575.76,405.61,570.6,405.61z"/>
					</g>
				</g>
			</g>
			<g>
				<g>
					<g>
						<path class="st15" d="M664.17,261.47H445.92c-7.52,0-13.61-6.09-13.61-13.61V92.15c0-7.52,6.09-13.61,13.61-13.61h218.25
							c7.52,0,13.61,6.09,13.61,13.61v155.71C677.78,255.37,671.69,261.47,664.17,261.47z"/>
						<path class="st15" d="M557.97,284.43h-21.39c-3.83,0-6.41-3.92-4.88-7.44l11.53-26.62l9.86-22.78c1.85-4.28,7.92-4.28,9.77,0
							l9.86,22.78l11.53,26.62c1.52,3.51-1.05,7.44-4.88,7.44H557.97z"/>
					</g>
					<path class="st26" d="M564.5,240.95c0,3.47-2.81,6.28-6.28,6.28c-3.47,0-6.28-2.81-6.28-6.28s2.81-6.28,6.28-6.28
						C561.68,234.66,564.5,237.48,564.5,240.95z"/>
					<text transform="matrix(1 0 0 1 296.1078 208.3769)" class="st53 st54">DD6B4D</text>
				</g>
				<g>
					<path class="st27" d="M660.9,227.12H453.23c-3.45,0-6.24-2.8-6.24-6.24V98.83c0-3.45,2.8-6.24,6.24-6.24H660.9
						c3.45,0,6.24,2.8,6.24,6.24v122.04C667.15,224.33,664.35,227.12,660.9,227.12z"/>
					<g>
						<g>
							<path class="st27" d="M474.75,211.03h123.49c7.43,0,13.45-6.02,13.45-13.45v-86.62c0-7.43-6.02-13.45-13.45-13.45H474.75
								c-7.43,0-13.45,6.02-13.45,13.45v86.62C461.3,205.01,467.32,211.03,474.75,211.03z"/>
							<g>
								<g>
									<path class="st28" d="M475.98,107.91c0,1.42-1.14,2.57-2.54,2.57c-1.4,0-2.54-1.15-2.54-2.57c0-1.42,1.14-2.57,2.54-2.57
										C474.84,105.34,475.98,106.49,475.98,107.91z"/>
									<path class="st21" d="M486.1,107.91c0,1.42-1.14,2.57-2.54,2.57c-1.4,0-2.54-1.15-2.54-2.57c0-1.42,1.14-2.57,2.54-2.57
										C484.97,105.34,486.1,106.49,486.1,107.91z"/>
									<path class="st55" d="M496.23,107.91c0,1.42-1.14,2.57-2.54,2.57c-1.4,0-2.54-1.15-2.54-2.57c0-1.42,1.14-2.57,2.54-2.57
										C495.09,105.34,496.23,106.49,496.23,107.91z"/>
								</g>
								<line class="st17" x1="461.65" y1="116.92" x2="611.68" y2="116.92"/>
							</g>
						</g>
						<g>
							<g>
								<rect x="575.14" y="164.49" class="st10" width="28.01" height="17.46"/>
								<g>
									<line class="st10" x1="578.58" y1="169.08" x2="598.91" y2="169.08"/>
									<line class="st10" x1="578.58" y1="172.26" x2="598.91" y2="172.26"/>
									<line class="st10" x1="578.58" y1="175.43" x2="598.91" y2="175.43"/>
								</g>
							</g>
							<g>
								<path class="st25" d="M541.96,146.55v-20.49c-11.32,0-20.49,9.17-20.49,20.49c0,11.32,9.17,20.49,20.49,20.49
									s20.49-9.17,20.49-20.49c0-1.48-0.17-2.93-0.47-4.32L541.96,146.55z"/>
								<path class="st8" d="M564.5,138.63c-1.98-9.24-10.19-16.17-20.02-16.17v20.49L564.5,138.63z"/>
							</g>
							<g>
								<g>
									<g>
										<path class="st10" d="M503.43,127.27h-24.56c-0.95,0-1.73-0.77-1.73-1.73l0,0c0-0.95,0.77-1.73,1.73-1.73h24.56
											c0.95,0,1.73,0.77,1.73,1.73l0,0C505.15,126.5,504.38,127.27,503.43,127.27z"/>
										<g>
											<line class="st10" x1="478.91" y1="129.83" x2="502.68" y2="129.83"/>
											<line class="st10" x1="478.91" y1="133.01" x2="502.68" y2="133.01"/>
											<line class="st10" x1="478.91" y1="136.19" x2="502.68" y2="136.19"/>
										</g>
									</g>
									<polyline class="st10" points="506.92,126.09 515.9,126.09 528.82,137.92 									"/>
								</g>
								<g>
									<g>
										<path class="st10" d="M601.42,129.27h-24.56c-0.95,0-1.73-0.77-1.73-1.73l0,0c0-0.95,0.77-1.73,1.73-1.73h24.56
											c0.95,0,1.73,0.77,1.73,1.73l0,0C603.15,128.5,602.38,129.27,601.42,129.27z"/>
										<g>
											<g>
												<line class="st10" x1="576.91" y1="131.83" x2="600.68" y2="131.83"/>
												<line class="st10" x1="576.91" y1="135.01" x2="600.68" y2="135.01"/>
												<line class="st10" x1="576.91" y1="138.19" x2="600.68" y2="138.19"/>
											</g>
											<g>
												<line class="st10" x1="576.91" y1="141.49" x2="600.68" y2="141.49"/>
												<line class="st10" x1="576.91" y1="144.66" x2="600.68" y2="144.66"/>
												<line class="st10" x1="576.91" y1="147.84" x2="600.68" y2="147.84"/>
											</g>
										</g>
									</g>
									<polyline class="st10" points="556.93,135.58 565.61,128.47 573.3,128.47 									"/>
								</g>
							</g>
							<g>
								<g>
									<polyline class="st10" points="480.7,154.7 480.7,194.96 541.63,194.96 									"/>
									<g>
										<polygon class="st56" points="480.7,154.92 478.52,154.92 479.61,153.04 480.7,151.16 481.78,153.04 482.87,154.92 
																					"/>
										<polygon class="st56" points="540.98,194.96 540.98,192.78 542.87,193.87 544.75,194.96 542.87,196.05 540.98,197.13 
																					"/>
									</g>
								</g>
								<polyline class="st11" points="475.65,191.63 490.47,178.28 502.66,191.39 518.04,163.23 529.28,190.71 								"/>
								<g>
									<g>
										<path class="st57" d="M470.57,171.77c0,0,0.54-0.56,1.44-1.38"/>
										<path class="st58" d="M474.98,167.93c3.94-2.96,9.63-6.01,13.25-2.52c5.99,5.77,4.57,10.21,16.6,7.62
											c11.31-2.43,25.19,0.93,29.27,20.23"/>
										<path class="st57" d="M534.46,195.15c0.11,0.64,0.21,1.3,0.3,1.98"/>
									</g>
								</g>
							</g>
						</g>
					</g>
					<g>
						<g>
							<g>
								<defs>
									<path id="SVGID_9_" d="M660.9,227.12H521.47c-3.45,0,3.93-23.62,3.93-27.07l26.53-74.51c0-3.45,47.77,2,51.22,2
										l57.75-34.96c3.45,0,6.24,2.8,6.24,6.24v122.04C667.15,224.33,664.35,227.12,660.9,227.12z"/>
								</defs>
								<clipPath id="SVGID_10_">
									<use xlink:href="#SVGID_9_"  style="overflow:visible;"/>
								</clipPath>
								<g class="st59">
									<g>
										<path class="st55" d="M660.12,149.06c0,0,36.99,14.46,56.59,77l-25.05,12.43l-18.54-47.34L660.12,149.06z"/>
										<g>
											<g>
												<path class="st18" d="M549.84,161.44c0,0-6.3-4.05-5.52-5.98c0.78-1.93,2.61-0.85,2.61-0.85s-1.88-1.15-1.01-2.43
													c0.87-1.27,2.05-0.8,2.05-0.8s-1.33-1.95-0.05-2.68c1.28-0.72,3.21-0.26,3.21-0.26s-0.74-1.62-0.7-2.2
													c0.04-0.57,0.87-1.84,3.55-1.21c2.69,0.62,8.43,3.82,10.37,4.81c1.94,0.99,4.12,3.27,4.19,2.53
													c0.06-0.74,0.89-5.46,2.73-6.84c1.83-1.38,2.56-1.6,2.89,1.02c0.33,2.62,0.24,9.92,3.79,15.3
													c3.55,5.38,4.76,8.96,8.51,13.32c3.75,4.36,5.47,6.56,5.47,6.56l-16.9,13.76c0,0-16.4-24.68-16.52-24.85
													C558.39,170.48,553.07,163.95,549.84,161.44z"/>
												<g>
													<path class="st26" d="M546.38,154.48c0,0-2.1-3.42,1.83-3c3.93,0.42,9.26,4.05,11.82,5.98"/>
													<path class="st26" d="M564.31,165.2c0,0-1.44-4.39,4.83-6.21c0,0-2.39-9.32,2.13-13.46c4.52-4.14,2.06,6.52,5.08,13.01
														c3.02,6.49,6.45,12.75,9.67,16.17c3.22,3.42,6,7.14,6,7.14l-17.09,13.72c0,0-5.84-8.88-14.85-22.65
														c-9.01-13.77-16.96-14.08-15.75-17.46c1.49-4.16,12.11,5.64,12.11,5.64"/>
													<path class="st26" d="M548.21,151.48c0,0-2.02-2.49,0.55-3.14c0.43-0.11,0.96-0.12,1.57-0.04
														c3.09,0.4,8.23,3,11.98,5.9"/>
													<path class="st26" d="M568.57,153.08c0,0-7.36-6.87-15.75-8c-3.03-0.41-2.91,2.62,0.07,3.88"/>
												</g>
											</g>
											<g>
												<path class="st55" d="M604.24,190.37c-2.38-1.6-4.81-3.69-7.14-5.95c-7.56-7.35-14.02-16.51-14.02-16.51l-18.58,15.92
													c0,0,20.27,31.46,32.44,35.39c12.17,3.93,40-27.71,40-27.71l2.19-41.63c0,0-5.23,2.81-9.43,6.6
													c-6.89,6.22-18.94,17.35-32.59,27.94"/>
												<g>
													<path class="st17" d="M589.14,175.72c-3.63-4.36-6.06-7.81-6.06-7.81l-18.58,15.92c0,0,2.36,3.66,5.94,8.63
														L589.14,175.72z"/>
													<path class="st17" d="M584.58,173.95c0,0.7-0.57,1.26-1.26,1.26c-0.7,0-1.26-0.57-1.26-1.26c0-0.7,0.57-1.26,1.26-1.26
														C584.01,172.68,584.58,173.25,584.58,173.95z"/>
												</g>
											</g>
										</g>
									</g>
									<g>
										<path class="st1" d="M689.6,228.86c0-0.35,0-7.44,0-7.78c0-41-17.44-74.24-38.96-74.24c-21.52,0-38.96,33.24-38.96,74.24
											c0,0.35,0,7.44,0,7.78H689.6z"/>
										<line class="st26" x1="650.52" y1="165.44" x2="650.52" y2="228.86"/>
										<path class="st17" d="M650.64,166.11l15.02-13.55c-4.62-3.68-9.7-5.73-15.02-5.73c-5.15,0-10.53,2.27-15.03,5.72
											L650.64,166.11z"/>
										<path class="st26" d="M617.28,182.72c-3.55,11.19-5.6,24.32-5.6,38.36c0,0.35,0,7.44,0,7.78h77.92c0-0.35,0-7.44,0-7.78
											c0-14.36-2.14-27.77-5.85-39.13"/>
										<path class="st26" d="M665.67,152.56c-4.62-3.69-9.7-5.72-15.02-5.72c-5.31,0-10.36,2.02-14.98,5.68"/>
									</g>
								</g>
							</g>
						</g>
					</g>
					<path class="st26" d="M660.9,227.12H453.23c-3.45,0-6.24-2.8-6.24-6.24V98.83c0-3.45,2.8-6.24,6.24-6.24H660.9
						c3.45,0,6.24,2.8,6.24,6.24v122.04C667.15,224.33,664.35,227.12,660.9,227.12z"/>
					<g>
						<g>
							<path class="st60" d="M666.11,156.58l-8.29-12.45c-1.62-2.44-4.67-3.34-7.3-2.37c-2.63-0.98-5.68-0.07-7.3,2.37l-8.29,12.45
								c-1.89,2.84-1.12,6.68,1.72,8.58l1.19,0.79c2.84,1.89,6.68,1.12,8.58-1.72l4.11-6.17l4.11,6.17
								c1.89,2.84,5.73,3.61,8.58,1.72l1.19-0.79C667.23,163.26,668,159.42,666.11,156.58z"/>
							<path class="st60" d="M651.85,155.11c0,0.66-0.54,1.2-1.2,1.2c-0.66,0-1.2-0.54-1.2-1.2c0-0.66,0.54-1.2,1.2-1.2
								C651.31,153.9,651.85,154.44,651.85,155.11z"/>
						</g>
						<g>
							<path class="st33" d="M666.99,125.69c0,3.54-2.89,6.41-6.46,6.41c-3.57,0-6.46-2.87-6.46-6.41c0-3.54,2.89-6.41,6.46-6.41
								C664.1,119.28,666.99,122.15,666.99,125.69z"/>
							<g>
								<path class="st17" d="M638.84,105.8h8.12c5.4,0,9.81,5.03,9.81,11.17v12.58c0,0.35-0.02,0.7-0.05,1.05
									c0.09,0.37,0.14,0.76,0.14,1.15v7.66v0.43v7.66c0,2.78-2.27,5.05-5.05,5.05h-3.22c-2.78,0-5.05-2.27-5.05-5.05v-6.78h-4.69
									c-5.4,0-9.81-5.03-9.81-11.17v-12.58C629.03,110.83,633.44,105.8,638.84,105.8z"/>
								<g>
									<path d="M654.64,125.48l-1.5-9.86c0,0-27.27,3.42-36.11-9.83c-8.84-13.25,0.45-18.49,4.94-17.74
										c4.49,0.75,9.75,7.19,9.75,7.19s-4.18-5.69,0-6.59c4.18-0.9,8.81,3.45,11.21,7.94c0,0,17.97-1.68,24.05,9.2
										c6.08,10.88,1.15,18.59-9.96,29.83l-0.74-6.29L654.64,125.48z"/>
									<path d="M685.92,93.86c0,6.38-5.17,11.55-11.55,11.55c-6.38,0-11.55-5.17-11.55-11.55c0-6.38,5.17-11.55,11.55-11.55
										C680.75,82.31,685.92,87.48,685.92,93.86z"/>
								</g>
								<g>
									<g>
										<path class="st8" d="M652.2,127.42c0,2.57-2.09,4.66-4.66,4.66c-2.57,0-4.66-2.09-4.66-4.66c0-2.57,2.09-4.66,4.66-4.66
											C650.11,122.76,652.2,124.85,652.2,127.42z"/>
										<path class="st8" d="M630.28,123.69c-0.28,0-0.56,0.04-0.82,0.1v4.83c0,0.72-0.08,1.43,0.07,2.11
											c0.19,0.03,0.55,0.05,0.75,0.05c1.96,0,3.55-1.59,3.55-3.55C633.83,125.28,632.24,123.69,630.28,123.69z"/>
									</g>
									<g>
										<g>
											<path class="st35" d="M643.78,120.91c0,0.92-0.74,1.66-1.66,1.66c-0.92,0-1.66-0.74-1.66-1.66
												c0-0.92,0.74-1.66,1.66-1.66C643.04,119.25,643.78,120,643.78,120.91z"/>
											<path class="st35" d="M632.93,120.67c0,0.78-0.63,1.41-1.41,1.41c-0.78,0-1.41-0.63-1.41-1.41
												c0-0.78,0.63-1.42,1.41-1.42C632.3,119.25,632.93,119.89,632.93,120.67z"/>
										</g>
										<g>
											<path class="st36" d="M634.51,127.45c0,0,0.83,2.43,2.59,2.59c1.76,0.17,3.14-1.78,3.24-3.31L634.51,127.45z"/>
											<g>
												<path class="st35" d="M633.98,127.6c0.32,0.93,0.89,1.84,1.68,2.43c1.37,1.04,3.16,0.54,4.19-0.73
													c0.6-0.73,0.99-1.62,1.06-2.56c0.02-0.28-0.27-0.59-0.56-0.56c-1.7,0.21-3.4,0.42-5.11,0.63
													c-0.24,0.03-0.48,0.06-0.72,0.09c-0.3,0.04-0.56,0.23-0.56,0.56c0,0.27,0.26,0.6,0.56,0.56c1.7-0.21,3.4-0.42,5.11-0.63
													c0.24-0.03,0.48-0.06,0.72-0.09c-0.19-0.19-0.37-0.37-0.56-0.56c-0.08,1.09-0.9,2.41-2.04,2.7
													c-1.08,0.28-1.86-0.55-2.35-1.42c-0.11-0.19-0.2-0.39-0.29-0.59c-0.04-0.09,0.04,0.12,0.01,0.01
													c-0.01-0.02-0.02-0.05-0.03-0.07c-0.01-0.02-0.02-0.05-0.03-0.07C634.82,126.63,633.74,126.92,633.98,127.6z"/>
											</g>
										</g>
										<g>
											<path class="st2" d="M650.52,119.94c0,3.57-2.59,6.47-5.79,6.47c-3.2,0-5.79-2.9-5.79-6.47c0-3.57,2.59-6.47,5.79-6.47
												C647.93,113.47,650.52,116.37,650.52,119.94z"/>
											<ellipse class="st2" cx="630.31" cy="119.13" rx="4.76" ry="5.78"/>
											<polygon class="st6" points="636.93,119.28 636.93,124.9 633.99,123.1 											"/>
											<path class="st2" d="M634.92,120.86c0,0,2.33-0.98,4.02,0.42"/>
										</g>
									</g>
								</g>
								<g>
									<path class="st18" d="M666.99,125.69c0,3.54-2.89,6.41-6.46,6.41c-3.57,0-6.46-2.87-6.46-6.41c0-3.54,2.89-6.41,6.46-6.41
										C664.1,119.28,666.99,122.15,666.99,125.69z"/>
									<g>
										<g>
											<path class="st37" d="M657.72,126.54c-0.01-0.14,0-0.28,0-0.42c0-0.06,0.01-0.13,0.01-0.19c0-0.04,0.01-0.07,0.01-0.11
												c0.02-0.19-0.03,0.17,0,0.02c0.03-0.18,0.06-0.36,0.11-0.53c0.02-0.09,0.05-0.18,0.08-0.27c0.02-0.05,0.03-0.1,0.05-0.15
												c0.01-0.02,0.02-0.05,0.03-0.07c0.04-0.11,0,0.02-0.02,0.05c0.12-0.19,0.2-0.41,0.33-0.6c0.01-0.02,0.02-0.03,0.04-0.05
												c0.06-0.08,0.07-0.03-0.03,0.04c0.04-0.02,0.07-0.09,0.11-0.13c0.08-0.09,0.17-0.18,0.26-0.26
												c0.02-0.01,0.04-0.03,0.05-0.04c0.06-0.06,0.1-0.03-0.03,0.02c0.05-0.02,0.1-0.07,0.15-0.1c0.11-0.07,0.23-0.14,0.36-0.2
												c0.02-0.01,0.14-0.06,0.02-0.01c-0.12,0.05,0.04-0.02,0.07-0.02c0.08-0.03,0.16-0.05,0.24-0.08
												c0.08-0.02,0.17-0.04,0.25-0.06c0.03-0.01,0.06-0.01,0.09-0.02c0.03-0.01,0.06-0.01,0.09-0.02
												c0.08-0.01,0.06-0.01-0.04,0c0.07-0.04,0.21-0.02,0.29-0.03c0.1-0.01,0.21-0.01,0.31-0.01c0.23,0,0.45,0.01,0.68,0.04
												c0.36,0.04,0.7-0.34,0.69-0.69c-0.02-0.4-0.3-0.65-0.69-0.69c-1.39-0.14-2.91,0.16-3.84,1.29
												c-0.63,0.77-0.93,1.72-1.02,2.7c-0.02,0.19-0.03,0.38-0.02,0.57c0.02,0.36,0.3,0.71,0.69,0.69
												C657.39,127.21,657.75,126.92,657.72,126.54L657.72,126.54z"/>
										</g>
									</g>
								</g>
							</g>
						</g>
					</g>
				</g>
			</g>
		</g>
		<g>
			<g>
				<path class="st17" d="M547.67,63.4h40c5.11,0,9.25,4.14,9.25,9.25v16.33v5.71v17.89l-9.41-8.64h-39.84
					c-5.11,0-9.25-4.14-9.25-9.25V72.65C538.42,67.54,542.56,63.4,547.67,63.4z"/>
				<text transform="matrix(1 0 0 1 557.2982 94.4555)" class="st61 st62 st63">?</text>
			</g>
			<g>
				<g>
					<path class="st17" d="M444.7,208.63h-46.16c-5.9,0-10.68,4.78-10.68,10.68v18.84v6.59v20.65l10.86-9.97h45.98
						c5.9,0,10.68-4.78,10.68-10.68v-25.43C455.38,213.42,450.6,208.63,444.7,208.63z"/>
					<g>
						<path class="st17" d="M411.06,232.88c0,2.56-2.08,4.64-4.64,4.64c-2.56,0-4.64-2.08-4.64-4.64s2.08-4.64,4.64-4.64
							C408.98,228.24,411.06,230.31,411.06,232.88z"/>
						<path class="st17" d="M427.21,232.88c0,2.56-2.08,4.64-4.64,4.64s-4.64-2.08-4.64-4.64s2.08-4.64,4.64-4.64
							S427.21,230.31,427.21,232.88z"/>
						<path class="st17" d="M443.36,232.88c0,2.56-2.08,4.64-4.64,4.64s-4.64-2.08-4.64-4.64s2.08-4.64,4.64-4.64
							S443.36,230.31,443.36,232.88z"/>
					</g>
				</g>
				<g>
					<path class="st17" d="M458,193.43h-46.16c-5.9,0-10.68,4.78-10.68,10.68v18.84v6.59v20.65l10.86-9.97H458
						c5.9,0,10.68-4.78,10.68-10.68v-25.43C468.68,198.22,463.9,193.43,458,193.43z"/>
					<g>
						<path class="st17" d="M424.36,217.68c0,2.56-2.08,4.64-4.64,4.64s-4.64-2.08-4.64-4.64s2.08-4.64,4.64-4.64
							S424.36,215.11,424.36,217.68z"/>
						<path class="st17" d="M440.51,217.68c0,2.56-2.08,4.64-4.64,4.64s-4.64-2.08-4.64-4.64s2.08-4.64,4.64-4.64
							S440.51,215.11,440.51,217.68z"/>
						<path class="st17" d="M456.66,217.68c0,2.56-2.08,4.64-4.64,4.64s-4.64-2.08-4.64-4.64s2.08-4.64,4.64-4.64
							S456.66,215.11,456.66,217.68z"/>
					</g>
				</g>
			</g>
			<g>
				<path class="st17" d="M238.5,105.14h-42.58c-5.44,0-9.85,4.41-9.85,9.85v17.38v6.08v19.05l10.02-9.2h42.42
					c5.44,0,9.85-4.41,9.85-9.85v-23.47C248.35,109.55,243.94,105.14,238.5,105.14z"/>
				<g>
					<path class="st17" d="M207.46,127.51c0,2.37-1.92,4.28-4.28,4.28c-2.37,0-4.28-1.92-4.28-4.28s1.92-4.28,4.28-4.28
						C205.55,123.23,207.46,125.14,207.46,127.51z"/>
					<path class="st17" d="M222.36,127.51c0,2.37-1.92,4.28-4.28,4.28s-4.28-1.92-4.28-4.28s1.92-4.28,4.28-4.28
						S222.36,125.14,222.36,127.51z"/>
					<path class="st17" d="M237.26,127.51c0,2.37-1.92,4.28-4.28,4.28c-2.37,0-4.28-1.92-4.28-4.28s1.92-4.28,4.28-4.28
						C235.34,123.23,237.26,125.14,237.26,127.51z"/>
				</g>
			</g>
			<g>
				<path class="st17" d="M621.42,302.21h-42.58c-5.44,0-9.85,4.41-9.85,9.85v17.39v6.08v19.05l10.02-9.2h42.42
					c5.44,0,9.85-4.41,9.85-9.85v-23.47C631.27,306.63,626.86,302.21,621.42,302.21z"/>
				<g>
					<path class="st17" d="M590.38,324.58c0,2.37-1.92,4.28-4.28,4.28c-2.37,0-4.28-1.92-4.28-4.28s1.92-4.28,4.28-4.28
						C588.46,320.3,590.38,322.22,590.38,324.58z"/>
					<circle class="st17" cx="601" cy="324.58" r="4.28"/>
					<path class="st17" d="M620.18,324.58c0,2.37-1.92,4.28-4.28,4.28s-4.28-1.92-4.28-4.28s1.92-4.28,4.28-4.28
						S620.18,322.22,620.18,324.58z"/>
				</g>
			</g>
			<g>
				<g>
					<path class="st64" d="M111.11,267.52c-0.97-5.4-4.02-8.94-7.43-11.17c-5.78-3.77-13.45-3.77-19.22,0
						c-3.41,2.23-6.46,5.77-7.43,11.17c-1.78,9.98,7,15.34,8.65,17.35c0,0,1.11,0.92,1.65,2.01c0.13,0.27,0.28,1.13,0.44,2.28h6.31
						h6.31c0.17-1.15,0.31-2.01,0.44-2.28c0.53-1.09,1.65-2.01,1.65-2.01C104.11,282.86,112.89,277.49,111.11,267.52z"/>
					<g>
						<path class="st18" d="M91.42,290.23c0,0,0-9.46-0.69-10.81c-0.69-1.35-3.88-6.08-4.42-7.07c-0.54-1,0.57-2.15,1.42-0.68
							c0.73,1.26,3.82,5.57,4.51,7.34c0.69,1.76,1.28,11.7,1.28,11.7L91.42,290.23z"/>
						<path class="st18" d="M96.67,290.23c0,0,0-9.46,0.69-10.81c0.69-1.35,3.88-6.08,4.42-7.07c0.54-1-0.57-2.15-1.42-0.68
							c-0.73,1.26-3.82,5.57-4.51,7.34c-0.69,1.76-1.28,11.7-1.28,11.7L96.67,290.23z"/>
						<g>
							<path class="st18" d="M101.24,272.03c-1.28,0.6-3.46,0.67-5.07,0.18c-0.01,0.01-0.03,0.02-0.04,0.03
								c-1.33,0.98-3.18,0.61-4.54-0.39c-1.69,0.66-4.02,0.74-4.37,0.75l-0.01-0.9c1.02-0.02,2.48-0.19,3.62-0.53
								c-0.94-1.02-1.14-2.12-0.51-2.87c0.79-0.95,1.79-0.89,2.42-0.41c0.76,0.58,1.12,1.81,0.41,2.87
								c-0.16,0.24-0.38,0.44-0.64,0.62c0.85,0.5,1.86,0.72,2.67,0.41c-0.28-0.16-0.52-0.36-0.69-0.58
								c-0.27-0.35-0.63-1.07,0.06-2.03c0.47-0.65,1.08-0.95,1.68-0.82c0.58,0.12,1.03,0.63,1.15,1.29
								c0.12,0.62-0.06,1.26-0.49,1.83c1.31,0.29,2.99,0.24,4.03-0.24L101.24,272.03z M95.57,269.36c-0.11,0.08-0.21,0.19-0.31,0.33
								c-0.35,0.49-0.22,0.76-0.08,0.95c0.18,0.22,0.47,0.41,0.83,0.57c0.42-0.43,0.61-0.92,0.52-1.37
								c-0.06-0.31-0.26-0.56-0.5-0.61C95.89,269.2,95.73,269.25,95.57,269.36z M91.75,270.82c0.3-0.16,0.53-0.34,0.67-0.54
								c0.41-0.62,0.21-1.32-0.22-1.65c-0.38-0.28-0.81-0.19-1.19,0.26c-0.38,0.45,0.04,1.2,0.51,1.71
								C91.59,270.67,91.67,270.74,91.75,270.82z"/>
						</g>
					</g>
					<g>
						<path class="st17" d="M94.04,288.15c-3.43,0-6.36-0.9-6.85-1.17c0.04,0.07,0.08,0.13,0.11,0.2c0.46,0.94,1.03,8.79,2.27,11.82
							c0.22,0.54,0.46,0.92,0.72,1.09c0.71,0.46,2.18,0.95,3.75,0.87c1.57,0.07,3.04-0.41,3.75-0.87c0.26-0.17,0.5-0.55,0.72-1.09
							c1.23-3.03,1.81-10.87,2.27-11.82c0.03-0.07,0.08-0.14,0.11-0.2C100.4,287.25,97.47,288.15,94.04,288.15z"/>
						<path d="M94.04,291.69c1.98-0.03,4.14-0.27,6.1-0.89c0.13-0.93,0.25-1.77,0.35-2.41c-4.15,1.58-8.76,1.58-12.91,0
							c0.11,0.64,0.22,1.48,0.35,2.41C89.9,291.42,92.06,291.66,94.04,291.69z"/>
						<path d="M94.04,295.69c1.77-0.03,3.68-0.23,5.47-0.71c0.14-0.78,0.26-1.59,0.38-2.38c-3.79,1.29-7.91,1.29-11.7,0
							c0.12,0.79,0.24,1.6,0.38,2.38C90.36,295.47,92.27,295.67,94.04,295.69z"/>
						<path d="M88.95,296.86c0.19,0.83,0.4,1.57,0.63,2.13c0.04,0.09,0.08,0.17,0.11,0.26c1.45,0.29,2.95,0.42,4.36,0.45
							c1.41-0.02,2.9-0.16,4.35-0.45c0.04-0.08,0.08-0.16,0.11-0.26c0.23-0.57,0.44-1.3,0.63-2.13
							C95.82,297.83,92.27,297.83,88.95,296.86z"/>
					</g>
				</g>
				<g>
					<path class="st17" d="M94.39,248.48h-0.04c-1,0-1.82-0.81-1.82-1.82v-8.53c0-1,0.81-1.82,1.82-1.82h0.04
						c1,0,1.82,0.81,1.82,1.82v8.53C96.2,247.67,95.39,248.48,94.39,248.48z"/>
					<path class="st17" d="M107.47,250.84l-0.03-0.02c-0.89-0.47-1.22-1.58-0.74-2.46l4.03-7.52c0.47-0.88,1.58-1.22,2.46-0.74
						l0.03,0.02c0.88,0.47,1.22,1.58,0.74,2.46l-4.03,7.52C109.46,250.98,108.35,251.32,107.47,250.84z"/>
					<path class="st17" d="M81.27,250.84l0.03-0.02c0.89-0.47,1.22-1.58,0.74-2.46l-4.03-7.52c-0.47-0.88-1.58-1.22-2.46-0.74
						l-0.03,0.02c-0.88,0.47-1.22,1.58-0.74,2.46l4.03,7.52C79.28,250.98,80.38,251.32,81.27,250.84z"/>
					<path class="st17" d="M71.58,260.85l-0.01,0.04c-0.21,0.98-1.17,1.61-2.15,1.41l-8.35-1.75c-0.98-0.21-1.61-1.17-1.41-2.15
						l0.01-0.04c0.21-0.98,1.17-1.61,2.15-1.41l8.35,1.75C71.16,258.9,71.78,259.87,71.58,260.85z"/>
					<path class="st17" d="M71.12,274.48l-0.01-0.04c-0.28-0.96-1.29-1.52-2.26-1.23l-8.18,2.4c-0.96,0.28-1.52,1.29-1.23,2.26
						l0.01,0.04c0.28,0.96,1.29,1.52,2.26,1.23l8.18-2.4C70.85,276.46,71.4,275.44,71.12,274.48z"/>
					<path class="st17" d="M117.16,260.85l0.01,0.04c0.21,0.98,1.17,1.61,2.15,1.41l8.35-1.75c0.98-0.21,1.61-1.17,1.41-2.15
						l-0.01-0.04c-0.21-0.98-1.17-1.61-2.15-1.41l-8.35,1.75C117.58,258.9,116.95,259.87,117.16,260.85z"/>
					<path class="st17" d="M117.61,274.48l0.01-0.04c0.28-0.96,1.29-1.52,2.26-1.23l8.18,2.4c0.96,0.28,1.52,1.29,1.23,2.26
						l-0.01,0.04c-0.28,0.96-1.29,1.52-2.26,1.23l-8.18-2.4C117.88,276.46,117.33,275.44,117.61,274.48z"/>
				</g>
			</g>
		</g>
	</g>
</g>
</svg>
